<?xml version="1.0" encoding="utf-8" ?>
<svg baseProfile="full" height="300mm" version="1.1" viewBox="0,0,200,300" width="200mm" xmlns="http://www.w3.org/2000/svg" xmlns:ev="http://www.w3.org/2001/xml-events" xmlns:xlink="http://www.w3.org/1999/xlink"><defs /><rect fill="#222222" height="300" width="200" x="0" y="0" /><text fill="#FFFFFF" style="font-size:12px; font-family:Arial; font-weight:bold;" x="10" y="20">running</text><text fill="#FFFFFF" style="font-size:4px; font-family:Arial" x="10" y="280">ATHLETE</text><text fill="#FFFFFF" style="font-size:9px; font-family:Arial" x="10" y="290">tootough</text><text fill="#FFFFFF" style="font-size:4px; font-family:Arial" x="120" y="280">STATISTICS</text><text fill="#FFFFFF" style="font-size:3px; font-family:Arial" x="120" y="285">Number: 46</text><text fill="#FFFFFF" style="font-size:3px; font-family:Arial" x="120" y="290">Weekly: 1.9</text><text fill="#FFFFFF" style="font-size:3px; font-family:Arial" x="141" y="285">Total: 78.3 km</text><text fill="#FFFFFF" style="font-size:3px; font-family:Arial" x="141" y="290">Avg: 1.7 km</text><text fill="#FFFFFF" style="font-size:3px; font-family:Arial" x="167" y="285">Min: 0.6 km</text><text fill="#FFFFFF" style="font-size:3px; font-family:Arial" x="167" y="290">Max: 3.5 km</text><polyline fill="none" points="11.5,46.545774830228765 13.944106925860979,46.61684421636164 15.338396111736074,47.14986395406595 16.470230862672906,47.27423505909974 17.716889428906143,47.220933164673625 19.30801944102859,46.758982926636236 19.685297691379674,47.0077254709031 21.817739975755103,46.24372970881814 24.786755771609023,45.817312431827304 26.115431348735,44.324846108153 28.100243013410363,42.72576494090026 36.00668286753353,44.662428573617944 38.13912515185075,44.9822431110515 38.5,44.324846108153" stroke="#4dd2ff" stroke-linecap="round" stroke-linejoin="round" stroke-width="0.5"><title>2024-08-14 1.8km</title><desc>1723632089000</desc></polyline><polyline fill="none" points="54.83655614161398,31.5 52.90365485998336,33.839930857822765 52.00826676626457,36.4415341791173 51.96562923799502,38.19644382750266 52.789954784617294,40.320788699085824 52.81837980344426,41.59846412972547 52.590979652653914,42.87613185941882 51.65295403072378,45.15436364339257 51.5392539552995,47.124706524045905 53.33003014273709,52.142840844389866 55.16344385838602,54.359402238420444 56.755244913860224,56.82222105831897 58.46074604475871,58.5" stroke="#4dd2ff" stroke-linecap="round" stroke-linejoin="round" stroke-width="0.5"><title>2024-08-09 2.2km</title><desc>1723207161000</desc></polyline><polyline fill="none" points="81.27722154936055,31.5 81.34654703259002,32.47614594839979 82.13685754168546,34.5785984940303 82.22004812158411,35.50967779206985 82.01207167177927,37.10151333337126 81.08311019622488,39.50426075657015 80.95832432631869,40.780708971375134 81.09697529289406,41.96704789609066 82.99649353401037,46.68230242954451 84.70190042204922,48.63444641231035 86.03294970048591,50.8568648306682 87.68289620190626,52.43356612345087 88.00179342488991,53.98022333619883 87.61357071867678,54.580863797149505 89.04167567373952,58.27476429757371 88.43161142105237,58.5 88.11271419806872,57.82429215735465 87.58584052533843,57.97444964639726 88.19590477796737,57.77924488938879" stroke="#4dd2ff" stroke-linecap="round" stroke-linejoin="round" stroke-width="0.5"><title>2024-08-08 2.4km</title><desc>1723127229000</desc></polyline><polyline fill="none" points="119.71884335798677,58.5 118.97465300757904,55.93561159359524 119.38057501683943,52.89496274598059 118.19663582323119,50.18400736601325 122.08672174543608,48.388907278189436 123.27066093927715,49.048332542035496 123.57510244625155,48.059194323199335 124.42077329894528,47.656211530265864 123.50744877802208,43.55309568773373 119.85415069432929,40.29256020858884 116.91121612710413,35.456671049265424 114.67864507588092,33.44170355753158 110.89003965584561,32.672350211272715 109.30017845286056,31.5 105.57922670105472,33.33179600848234 107.87945142027456,38.35088300702046 109.26635161868762,43.04020386229968 110.55177131481469,51.42958326742519 111.93867151322775,52.30881146507454 114.9492597487988,51.31967963508214" stroke="#4dd2ff" stroke-linecap="round" stroke-linejoin="round" stroke-width="0.5"><title>2024-08-01 2.1km</title><desc>1722517389000</desc></polyline><polyline fill="none" points="158.5,50.93479392136214 155.14853556477465,48.32434342466877 151.17573221749626,46.652010819496354 150.08368200832047,45.57110761583317 150.0460251045879,44.3882276424265 148.48326359828934,43.12376422810485 147.315899581532,39.06520607863786 146.0732217573095,39.269155124682584 140.95188284525648,41.14547939528711 141.27196652721614,43.12376422810485 136.69665271963459,44.36783311642648 137.54393305431586,47.54936126082612 137.3744769874029,47.77369842301414 134.30543933063745,48.732227914762916 131.97071129700635,48.915775741959806 131.5,48.7934105371678 131.6317991631804,48.03882392903324" stroke="#4dd2ff" stroke-linecap="round" stroke-linejoin="round" stroke-width="0.5"><title>2024-07-31 2.3km</title><desc>1722427947000</desc></polyline><polyline fill="none" points="176.07685834751464,48.60479892825242 179.6011220307555,54.04717195755802 179.9274427422788,57.015726247627754 181.9506311530713,55.03669105947483 175.42421692493372,58.5 174.05366993672214,58.28796103090281 169.22412340785377,46.20166349696228 170.00729311536998,40.759246629837435 168.0493688469287,34.397941615316086 177.0558204818517,31.5" stroke="#4dd2ff" stroke-linecap="round" stroke-linejoin="round" stroke-width="0.5"><title>2024-07-28 0.9km</title><desc>1722170776000</desc></polyline><polyline fill="none" points="27.959839169634506,78.82201648090268 27.16295939311385,81.28775523277 27.959839169634506,83.13705459993798 27.618319265311584,86.58906931453384 22.837040606653318,88.5 18.738801756408066,83.8151300259633 12.705283448798582,72.47270625224337 11.908403672510758,69.88365350861568 12.762203433085233,67.91103659785585 30.862758355215192,61.5 32.28575795609504,63.28769776277477 38.09159632748924,79.31516480387654 37.46547650336288,81.96583213470876 34.33487738133408,83.38362754473928 30.80583837116137,78.26722427539062 31.318118227645755,76.84942032652907" stroke="#4dd2ff" stroke-linecap="round" stroke-linejoin="round" stroke-width="0.5"><title>2024-07-21 1.6km</title><desc>1721564267000</desc></polyline><polyline fill="none" points="60.082087733084336,79.77700663125142 57.141508667264134,73.06163200730225 57.6529137219768,66.83082977123559 55.86299602990039,61.5 51.4521274312865,62.330780625052284 42.24683644273318,66.48467289813561 44.22853103047237,71.46931975131156 50.1096891623456,79.77700663125142 50.36539168958552,83.23852148081642 54.45663212891668,87.80770185252186 56.18262418941595,88.5 67.11390723846853,83.8615928197978 67.75316355703399,82.06160784111125" stroke="#4dd2ff" stroke-linecap="round" stroke-linejoin="round" stroke-width="0.5"><title>2024-07-06 1.2km</title><desc>1720269398000</desc></polyline><polyline fill="none" points="84.9318808526732,67.73373387640459 87.58852759154979,75.88542437387514 89.63210200588219,78.54115051566623 88.91685096081346,79.57392915766104 85.44277445634361,81.41817151443684 85.06811914697755,82.5615984161559 90.58577006601263,88.5 91.23290196387097,87.98362000691122 90.75606793386396,88.5 91.02854452235624,87.7254298137268 90.61982963955961,88.09427290680469 89.56398285878822,87.31970210224972 84.79564255836885,82.37717489621718 85.2384170149453,81.49194106966024 89.0871488286648,78.54115051566623 87.45228929712903,75.92230955429841 84.9318808526732,67.62307654507458 83.26296174747404,65.4099248595594 80.67443415604066,66.66404533103923 78.76709803601261,63.63939657359151 79.0055150508415,62.12706544579123 80.2657192730112,62.09017926445813 80.23165969958063,61.5" stroke="#4dd2ff" stroke-linecap="round" stroke-linejoin="round" stroke-width="0.5"><title>2024-06-30 2.0km</title><desc>1719712336000</desc></polyline><polyline fill="none" points="104.93998912465759,77.56922708344064 105.41549923981074,68.67262557370123 104.31588209839538,62.63797486163094 105.32634109328501,62.32761846372159 105.59381553309504,61.5 106.63399391015992,61.879325382440584 109.21958016161807,64.53459105928778 113.766645638505,65.32771829221747 114.33131390041672,67.8450227510184 114.47991081140935,73.74164835017291 116.82774200523272,73.8106141188473 120.63182292715646,72.22439785726601 121.58284315757919,72.396813031286 124.3764650846133,78.2588762700907 125.35720469732769,79.32782971023698 125.68411790148821,81.29331586399348 125.20860778621864,84.29324623363209 123.18768979655579,88.5 117.39241026726086,85.39666215630132 114.42047204705887,75.01751277598669" stroke="#4dd2ff" stroke-linecap="round" stroke-linejoin="round" stroke-width="0.5"><title>2024-06-08 2.5km</title><desc>1717850287000</desc></polyline><polyline fill="none" points="138.5201386923436,88.5 140.9276760951616,79.7417549722013 141.13257289561443,74.90956049889792 142.1570568967145,73.64110246364726 144.71826689969748,73.3994910796755 145.17928470042534,67.84240016201511 146.3062171016354,66.09069690137403 151.4798613076564,62.46646566782147 151.22374030738138,61.5" stroke="#4dd2ff" stroke-linecap="round" stroke-linejoin="round" stroke-width="0.5"><title>2024-06-01 0.6km</title><desc>1717234736000</desc></polyline><polyline fill="none" points="169.1300348995719,88.5 168.3234748095274,86.91491437295917 170.2950661405921,85.27698711043922 170.2054483529646,82.74083074729424 174.10382212186232,72.1205317809654 173.2972620318178,71.16944887398859 176.07541345315985,70.48255450220313 177.64372473978437,67.0480680350156 177.91257810313255,63.93059000707581 178.9879915562924,62.66245761181926 181.67652519023977,61.5" stroke="#4dd2ff" stroke-linecap="round" stroke-linejoin="round" stroke-width="0.5"><title>2024-05-28 0.7km</title><desc>1716888215000</desc></polyline><polyline fill="none" points="11.5,102.72024785357644 13.355795148061588,102.72024785357644 13.82884097029455,101.83362799769384 16.994609164306894,101.49586754970369 17.32210242585279,98.87821466874448 20.23315363866277,98.41379064248758 20.888140161754563,97.52716149916523 27.51078167092055,97.06273594664526 33.44204851728864,95.12058704241645 38.5,104.53570159195806 38.354447439080104,109.1798490898218 35.84366576792672,114.87941295758355 28.638814016012475,111.12193157855654 25.1091644205153,98.4560110301536" stroke="#4dd2ff" stroke-linecap="round" stroke-linejoin="round" stroke-width="0.5"><title>2024-05-22 1.8km</title><desc>1716381710000</desc></polyline><polyline fill="none" points="48.270769230788574,96.37307304714341 56.079999999841675,95.89110957313096 61.770769230788574,93.72226781514473 62.68461538455449,94.01144729540101 66.67230769223534,102.25298757356359 68.04307692311704,103.55427017659531 68.5,106.15682455827482 68.33384615369141,109.19311976304743 65.17692307685502,116.27773218488437 56.86923076910898,111.89203234337037 52.9646153843496,96.90323229672504 53.25538461538963,95.84291319863405 56.78615384618752,95.74652043462265 62.43538461532444,93.72226781514473 68.00153846130706,103.50607458900777 68.4169230768457,105.48208962296485 68.04307692311704,109.77145947964163 65.01076923077926,116.2295379039424 56.952307692263275,111.98842179120402 53.08923076908104,97.67437195422826 50.7630769230891,103.07231407769723 46.40153846144676,103.31329218903556 45.73692307667807,103.98803024258814 43.99230769230053,103.1687053371279 43.452307692030445,101.67463859185227 41.5,101.62644281113171" stroke="#ff1e00" stroke-linecap="round" stroke-linejoin="round" stroke-width="0.5"><title>2024-05-20 3.2km</title><desc>1716208756000</desc></polyline><polyline fill="none" points="71.5,101.7636684133031 71.89337748335674,102.92547333039693 73.46688741724938,102.71800841164077 73.50264900666662,102.01262689111172 76.97152317874134,101.92964074888732 77.61523178801872,98.52719424245879 80.04701986769214,98.52719424245879 80.83377483440563,97.48985729101696 88.05761589412577,97.15790890398785 93.35033112601377,95.33218790058163 98.32119205314666,104.00428919063415 98.14238410606049,109.23235601763008 95.6390728475526,114.70930585454335 88.55827814573422,110.93353777905577 85.1966887419112,97.98777936008992 85.48278145701624,96.99193460834795 88.09337748354301,97.03342818870442 93.42185430461541,95.29069414542755 96.60463576158509,101.88814767135773 98.10662251664326,103.67234615591587 98.5,105.3320586028567 98.21390728489496,109.06638668183587 95.6390728475526,114.70930585454335 88.55827814573422,110.8090613076929 85.2324503310956,98.48570081562502" stroke="#ff1c00" stroke-linecap="round" stroke-linejoin="round" stroke-width="0.5"><title>2024-05-18 3.3km</title><desc>1716036575000</desc></polyline><polyline fill="none" points="101.97519999975339,108.78436999156838 104.22160000004806,108.78436999156838 104.95600000000559,107.58140373887727 108.62800000002608,107.53128008072963 109.44880000012927,103.8221150887839 111.95439999992959,103.97248719073832 113.29360000020824,102.51888826460345 121.501600000076,102.01764625162468 128.5,99.711926362128 121.58799999998882,102.01764625162468 118.21839999989606,102.11789469546056 117.48399999993853,102.81963322527008 116.61999999987893,108.53375226678327 115.71280000009574,109.63646929324022 111.52240000013262,109.68659273520461 111.47919999994338,110.288073637872 109.14639999996871,109.3858520060021 108.54159999988042,107.78189832024509 104.91280000004917,107.73177468258655 101.5,109.08511109134997 103.61679999995977,110.288073637872 104.17840000009164,109.78683960391209" stroke="#4dd2ff" stroke-linecap="round" stroke-linejoin="round" stroke-width="0.5"><title>2024-05-17 1.5km</title><desc>1715950345000</desc></polyline><polyline fill="none" points="131.5,102.84771462946082 131.83061224478297,103.27393487776862 132.712244897848,102.97558074994595 133.37346938764676,101.8247842475248 136.53265306120738,101.78216209361563 136.71632653055713,98.75597797421506 139.80204081605189,98.67073303161305 140.5,99.56580405574641 144.0265306122601,99.60842643739306 144.87142857140861,96.9658305022167 147.2224489795044,96.8805851918878 152.6959183672443,94.91993822186487 153.54081632639281,95.26092096895445 158.38979591825046,104.85094599085278 158.27959183673374,109.11310820624931 155.67142857145518,115.08006177813513 148.3244897958357,111.07368812797358 145.05510204075836,99.3953144857951 144.98163265292533,96.9658305022167 147.55306122428738,96.92320784929325 153.28367346921004,95.26092096895445 158.5,105.27716418210184 158.27959183673374,109.36883654733538 155.74489795905538,115.08006177813513 151.4836734693963,113.24736373705673 150.05102040804923,111.67038452677662 148.2510204082355,110.9458245022397 144.8346938774921,98.58548807140323 143.03469387744553,103.23131287266733 139.10408163256943,103.7427766455221" stroke="#ff0700" stroke-linecap="round" stroke-linejoin="round" stroke-width="0.5"><title>2024-05-14 3.5km</title><desc>1715691096000</desc></polyline><polyline fill="none" points="162.21052631584462,102.60936516034417 161.5,103.02156492118957 162.10394736856688,103.02156492118957 163.52500000002328,102.73302513294038 163.91578947368544,101.90862459552591 167.11315789469518,101.66130410408368 168.07236842100974,103.22766464267625 171.87368421046995,103.55742397726863 173.79210526309907,102.93912500276929 175.53289473685436,97.12706808620715 178.12631578953005,97.12706808620715 183.38421052636113,95.27213858781033 188.5,105.00011788043776 188.39342105260585,108.58622026120429 185.6223684209399,114.72786141218967 178.62368421058636,110.85327994963154 175.35526315798052,98.61100551261916 174.89342105248943,98.61100551261916 173.50789473683108,103.06278487390955 170.87894736847375,103.26888457438326" stroke="#4dd2ff" stroke-linecap="round" stroke-linejoin="round" stroke-width="0.5"><title>2024-05-12 2.1km</title><desc>1715518163000</desc></polyline><polyline fill="none" points="11.5,132.8979029612965 13.560526315821335,132.733022972272 14.022368420963176,131.908622011455 17.219736842089333,131.57886115301517 17.46842105255928,128.77588291754364 20.346052631619386,128.69344208491384 20.807894736761227,129.6827309592627 24.573684210539795,129.6002903128392 25.46184210514184,127.08584246333339 28.055263157817535,127.12706304676249 33.31315789476503,125.39579489271273 37.04342105262913,132.60936293608393 38.21578947349917,133.88718147284817 38.5,135.24743544496596 38.073684210539795,139.4106083517836 35.657894736737944,144.68664663421805 28.55263157899026,140.81206278447644 25.142105262959376,127.62170971927117 25.67499999993015,126.87973948204308 28.410526315681636,127.04462187553872 32.21184210514184,125.39579489271273 33.63289473694749,125.31335336578195 28.51710526307579,127.08584246333339 25.532894736737944,127.16828362617525 24.53815789462533,128.7346625032951" stroke="#4dd2ff" stroke-linecap="round" stroke-linejoin="round" stroke-width="0.5"><title>2024-05-09 2.4km</title><desc>1715258461000</desc></polyline><polyline fill="none" points="58.956965716322884,145.76356958033284 57.856352735543624,145.88518897863105 57.961173019139096,147.40542934968835 57.01779046468437,148.5 53.139439961407334,147.64866744691972 51.252674851799384,146.25004702369915 51.61954584554769,145.64195015700534 48.68457789695822,144.97304288262967 48.99903874867596,126.79063753137598 50.36170243890956,124.78384955029469 52.824979109922424,124.54060205991846 53.03461967757903,121.80406090884935 54.816564503125846,121.5 57.90876287757419,121.6824365639477 58.642504864605144,125.45277963293483 60.31962940655649,125.57440320320893 61.31542210304178,126.66901421098737 61.31542210304178,125.75683851161739" stroke="#4dd2ff" stroke-linecap="round" stroke-linejoin="round" stroke-width="0.5"><title>2024-05-08 1.0km</title><desc>1715137847000</desc></polyline><polyline fill="none" points="80.18110236222856,133.43787363817682 84.04330708668567,133.02675606199773 85.53149606299121,127.10661615151912 88.22440944879781,127.10661615151912 93.53937007882632,125.33877961945836 96.83464566932525,132.04007215681486 98.25196850404609,133.7256556901848 98.5,135.12345128614106 98.25196850404609,139.02903075836366 95.7007874015253,144.66122038051253 88.75590551190544,140.71458486578194 85.53149606299121,128.7511082421115 84.71653543307912,128.70999602216762 84.50393700797576,127.59996448797756 80.85433070885483,127.59996448797756 80.25196850404609,128.70999602216762 77.59448818909004,128.7511082421115 77.38188976387028,131.62895314520574 73.7677165355999,131.91673649760196 72.91732283472084,132.69786169723375 71.5,132.78008531368687 71.81889763788786,133.15009137926972" stroke="#4dd2ff" stroke-linecap="round" stroke-linejoin="round" stroke-width="0.5"><title>2024-05-07 2.1km</title><desc>1715076864000</desc></polyline><polyline fill="none" points="111.22531645861454,148.44847466624924 113.04604616691358,148.5 112.86841400014237,144.42948233368224 113.80098287528381,142.31692217293312 113.49012658349238,133.40285085240612 112.82400595862418,132.57842006979627 111.98025316698477,126.29209079936845 113.93420700030401,125.93139738609898 114.95559195824899,122.22139293985674 117.53125837468542,121.5 115.0,122.32444898938411 114.5559195834212,127.889444226661 115.97697691665962,129.79595617519226 117.97533879149705,129.53831984876888 118.77468354138546,126.85889421062893 118.24178704153746,122.42750501763658 117.1315859996248,121.65458428877173 115.532896499848,121.80916852975497 114.422695458401,124.54014893411659 114.7779597917106,128.86846478105872 116.15460908319801,129.84748342467356 117.70889054145664,129.48679256770993 118.64145941636525,127.94097167177824 118.33060312480666,122.42750501763658 116.9095457913354,121.55152810155414 115.3552643333096,122.06680882564979 114.60032762517221,123.30348040422541 114.51151154167019,125.77681441535242 114.95559195824899,129.02304679894587 116.73191362502985,129.79595617519226 118.06415487476625,129.12610145137296 118.73027549963444,123.9733429030166 117.84211466647685,122.01528077718103" stroke="#4dd2ff" stroke-linecap="round" stroke-linejoin="round" stroke-width="0.5"><title>2024-05-05 2.1km</title><desc>1714912937000</desc></polyline><polyline fill="none" points="140.85397651069798,148.5 143.50222188071348,147.69405137258582 143.28515258827247,145.42731375736184 144.32708519278094,141.69976690184558 143.63246345636435,131.12143911939347 147.71336615784094,121.60074903164059 145.32560393889435,122.7593614065554 145.71632866561413,129.0057461836259 147.97384930914268,129.76135185116436 149.14602348930202,128.25013935158495 149.14602348930202,123.11198202092783 147.14898599707521,121.60074903164059 145.28219008049928,123.11198202092783 145.1953623634763,128.1997655214218 145.846570241265,129.25761486872216 147.32264143112116,129.81172552099451 149.10260963090695,128.25013935158495 149.05919577227905,123.06160766296671 147.23581371409819,121.65112353960285 145.1953623634763,123.11198202092783 145.23877622187138,127.89752243162366 146.97533056302927,129.66060449613724 149.14602348930202,128.30051317668403 149.10260963090695,123.21273072136682 147.45288300677203,121.70149804238463 145.28219008049928,122.96085893161944 145.1953623634763,127.79677469364833 146.8885028460063,129.50948342471384 148.92895419662818,128.60275601793546 148.92895419662818,123.61572531596175 147.45288300677203,121.5" stroke="#4dd2ff" stroke-linecap="round" stroke-linejoin="round" stroke-width="0.5"><title>2024-05-01 2.4km</title><desc>1714567455000</desc></polyline><polyline fill="none" points="175.67123194411397,121.5 169.55556311737746,127.55772995215375 170.00305107980967,144.00003004446626 175.0745813269168,148.5 180.44443688262254,144.34618200571276 179.996948919259,127.73080763104372 175.22374398075044,123.57693843718152 169.7047257712111,127.38465225603431 170.00305107980967,144.34618200571276 175.22374398075044,148.5 180.44443688262254,144.51925795990974 179.84778626542538,127.21157454163767 174.3287680549547,123.57693843718152 169.55556311737746,127.90388529165648 170.4505390431732,145.73078914172947 175.67123194411397,148.5 180.2952742278576,144.8654098152183 179.996948919259,127.90388529165648 175.3729066355154,123.57693843718152 169.55556311737746,127.55772995215375 170.00305107980967,144.00003004446626 174.9254186730832,148.5 180.2952742278576,144.8654098152183 179.996948919259,127.90388529165648 177.01369583327323,124.09617264627013" stroke="#4dd2ff" stroke-linecap="round" stroke-linejoin="round" stroke-width="0.5"><title>2024-04-28 1.5km</title><desc>1714309144000</desc></polyline><polyline fill="none" points="11.90369393141009,162.34119650587672 11.5,162.89226748482906 11.927440633182414,163.2504630140611 22.732189973583445,163.82908555096947 26.151715039508417,163.2504630140611 29.286279683350585,163.2504630140611 30.16490765172057,162.34119650587672 32.44459102896508,161.76257075968897 32.75329815293662,163.30556997607346 37.882585751940496,163.2229095287621 38.381266490672715,162.17587499142974 38.262532981461845,157.54683122225106 38.5,172.45316877774894" stroke="#4dd2ff" stroke-linecap="round" stroke-linejoin="round" stroke-width="0.5"><title>2024-04-27 2.0km</title><desc>1714184672000</desc></polyline><polyline fill="none" points="55.96955725271255,151.5 49.55556311737746,157.73080763104372 50.003051079809666,174.17310603382066 55.074581326916814,178.5 60.44443688262254,174.34618200571276 59.99694891925901,157.90388529165648 55.22374398075044,153.57693843718152 49.70472577121109,157.38465225603431 50.003051079809666,174.51925795990974 55.22374398075044,178.5 60.44443688262254,174.51925795990974 59.847786265425384,157.21157454163767 53.732117438688874,153.75001652457286 49.55556311737746,158.07696293469053 50.89802700653672,176.25001652468927 55.96955725271255,178.5 60.29527422785759,174.69233389629517 59.99694891925901,157.90388529165648 55.22374398075044,153.57693843718152 49.55556311737746,157.90388529165648 49.85388842597604,174.00003004446626 54.32876805495471,178.5 60.14611157402396,175.38463746430352 60.14611157402396,158.76927332975902 58.057834413833916,154.78848467639182" stroke="#4dd2ff" stroke-linecap="round" stroke-linejoin="round" stroke-width="0.5"><title>2024-04-24 1.5km</title><desc>1713963687000</desc></polyline><polyline fill="none" points="79.65606788219884,173.59461856953567 80.16340320976451,171.2400131150207 80.09575849946123,158.5641377772845 80.63691618223675,153.65850040040095 82.97065868938807,153.69774574943585 88.55134729342535,151.5 89.22779439692385,156.4449101582286 89.05868262110744,163.90139970058226 90.03953092114534,164.33308674412547 90.27628740738146,166.0205859626003 90.34393211780116,176.77331291808514 89.49837323825341,177.47968584913178 88.1454790312564,177.55817164981272 87.94254490023013,178.5 87.19845308631193,177.47968584913178 87.7734331242973,178.4215143926849 86.96169660030864,178.22530030432972 86.75876246916596,176.2631538779824 83.816217568703,176.18466781137977 82.46332336170599,177.00877070691786 81.21189622022212,176.65558396934648 81.21189622022212,177.0872566041944 83.78239521372598,177.7543860808073 84.28973054117523,176.89104183058953" stroke="#4dd2ff" stroke-linecap="round" stroke-linejoin="round" stroke-width="0.5"><title>2024-04-24 2.0km</title><desc>1713922053000</desc></polyline><polyline fill="none" points="115.48477892484516,151.5 109.18265289627016,155.81252679903992 109.50583884678781,173.81252864783164 115.1615929743275,178.5 120.81734710279852,174.18752679880708 120.49416115321219,156.37502954353113 115.0,151.5 109.18265289627016,155.81252679903992 109.66743182111531,174.375025845482 115.96955785062164,178.5 120.97894007805735,173.62502954364754 120.33256817795336,155.43752487318125 113.22247727401555,151.687501376844 109.02105992101133,156.75003127660602 111.12176859751344,176.81251169997267 115.96955785062164,178.5 120.33256817795336,175.5000197213376 120.65575412847102,157.31253373250365 116.29274380020797,151.687501376844 109.66743182111531,154.87502184009645 109.66743182111531,174.0000277328072 114.19203512463719,178.5 120.81734710279852,174.375025845482 120.65575412847102,156.56253041978925" stroke="#4dd2ff" stroke-linecap="round" stroke-linejoin="round" stroke-width="0.5"><title>2024-04-23 1.5km</title><desc>1713877564000</desc></polyline><polyline fill="none" points="144.59601756278425,151.5 139.26344938296825,155.81252679903992 139.74822830874473,174.375025845482 145.40398243721575,178.5 150.7365506151691,174.18752679880708 150.41336466558278,155.81252679903992 144.59601756278425,151.5 139.26344938296825,155.81252679903992 139.5866353334859,174.18752679880708 145.24238946195692,178.5 150.7365506151691,174.375025845482 150.25177169032395,155.6250258460641 144.27283161133528,151.5 139.10185640864074,156.37502954353113 139.5866353334859,174.375025845482 145.40398243721575,178.5 150.89814359042794,174.0000277328072 150.25177169032395,155.43752487318125 144.11123863700777,151.5 139.10185640864074,156.56253041978925 139.74822830874473,174.75002388155553 143.14168078638613,178.12500273494516 147.50469111371785,178.12500273494516 150.41336466558278,175.1250218396308 150.89814359042794,169.12504525878467" stroke="#4dd2ff" stroke-linecap="round" stroke-linejoin="round" stroke-width="0.5"><title>2024-04-21 1.4km</title><desc>1713704295000</desc></polyline><polyline fill="none" points="176.8370564142242,151.5 169.4888307582587,156.82898075773846 169.7950068274513,173.88160883332603 174.84691196586937,178.5 180.35808120761067,174.76976193895098 180.20499317441136,157.3618779303506 175.76544017344713,152.921063140966 169.64191879332066,156.6513483306626 169.64191879332066,173.17108602041844 173.00985555164516,177.96710934105795 178.67411282844841,177.2565882068593 180.51116924267262,173.52634746406693 180.20499317441136,158.25003951997496 176.53088034596294,153.09869595174678 172.09132734499872,153.45396151801106 169.64191879332066,156.47371588484384 169.7950068274513,174.05923949065618 174.69382393173873,178.5 180.35808120761067,174.41450075106695 180.20499317441136,157.3618779303506 175.3061760701239,152.74343031237368" stroke="#4dd2ff" stroke-linecap="round" stroke-linejoin="round" stroke-width="0.5"><title>2024-04-20 1.2km</title><desc>1713597513000</desc></polyline><polyline fill="none" points="27.6342686265707,181.5 26.756179084070027,184.38681350601837 22.658427885733545,184.5566259084735 19.877811001613736,187.61324616498314 19.877811001613736,203.5755045763217 23.53651742823422,208.33019005716778 29.097751198336482,206.80189978692215 29.975840740837157,188.46230634418316 26.463482570834458,184.21700108679943 22.21938311494887,184.72643829288427 19.877811001613736,187.7830582355382 20.02415925823152,204.25474619667511 24.70730348583311,208.5 30.12218899745494,204.7641772289062 29.82949248328805,187.9528702890966 24.999999999068677,184.0471886494197 19.73146274406463,187.9528702890966 20.02415925823152,204.08493581786752 24.853651742450893,208.5 30.12218899745494,204.93398753821384 29.975840740837157,188.12268232472707 24.999999999068677,184.0471886494197 19.73146274406463,188.12268232472707 20.02415925823152,204.42455655813683 25.146348256617785,208.5 30.26853725500405,204.42455655813683 29.975840740837157,188.12268232472707 25.439044771716,184.0471886494197" stroke="#4dd2ff" stroke-linecap="round" stroke-linejoin="round" stroke-width="0.5"><title>2024-04-12 1.6km</title><desc>1712927256000</desc></polyline><polyline fill="none" points="57.326937765814364,181.5 49.8206869084388,187.24842311418615 49.8206869084388,203.2742270961171 54.17431240621954,208.5 60.17931309249252,205.36453818995506 60.17931309249252,187.77100606739987 55.82568759471178,183.5903379325755 49.67056189104915,187.42261745000724 49.8206869084388,203.97099774726667 54.624687457457185,208.5 60.32943810895085,204.84196065855213 60.17931309249252,187.59681176755112 55.975812612101436,183.5903379325755 49.67056189104915,187.42261745000724 49.8206869084388,204.14519036514685 54.624687457457185,208.5 60.17931309249252,205.36453818995506 60.32943810895085,187.94520034943707 57.326937765814364,184.11292201268952" stroke="#4dd2ff" stroke-linecap="round" stroke-linejoin="round" stroke-width="0.5"><title>2024-03-27 1.2km</title><desc>1711545224000</desc></polyline><polyline fill="none" points="87.34309837967157,182.06250407360494 82.01052965410054,182.25000539259054 79.10185580328107,186.56253041978925 79.58663477841765,203.81252864771523 82.65690162032843,207.93750407348853 88.47424932196736,207.56250669248402 90.89814419671893,202.68753373238724 90.09017923846841,184.87502184009645 86.858319404535,181.87500273482874 82.17212264519185,182.06250407360494 79.10185580328107,186.75003127707168 79.74822776950896,204.75002388097346 85.5655754711479,208.5 90.89814419671893,203.6250295434147 90.41336522158235,185.4375248736469 84.75761051289737,181.5 79.26344879437238,185.81252679950558 79.58663477841765,203.81252864771523 84.75761051289737,208.5 90.73655120562762,204.37502584583126 90.41336522158235,185.62502584594768 85.08079649601132,181.5 79.26344879437238,185.81252679950558 79.42504178639501,203.6250295434147 84.59601752087474,208.5 90.57495821360499,204.56252487341408 90.57495821360499,186.37502954376396 87.01991239655763,181.87500273482874" stroke="#4dd2ff" stroke-linecap="round" stroke-linejoin="round" stroke-width="0.5"><title>2024-03-19 1.6km</title><desc>1710854178000</desc></polyline><polyline fill="none" points="118.15106301475316,182.62500797293615 112.65690186154097,181.87500273494516 109.26344938483089,185.43752487318125 109.4250423591584,203.62502954364754 111.68734401091933,207.56250669283327 116.85831921454519,208.5 120.4133646665141,205.1250218396308 120.4133646665141,186.37502954353113 114.91920351330191,181.5 109.26344938483089,185.81252679903992 109.74822830967605,204.75002388155553 116.69672623928636,208.5 120.73655061703175,204.0000277328072 120.2517716921866,185.6250258460641 114.27283161319792,181.5 109.10185640957206,186.93753211467993 109.74822830967605,204.9375228699064 113.14168078731745,208.3125013774261 117.34309813939035,208.12500273494516 120.89814359135926,203.25003127625678 118.47424896620214,182.81250923476182" stroke="#4dd2ff" stroke-linecap="round" stroke-linejoin="round" stroke-width="0.5"><title>2024-03-09 1.2km</title><desc>1709990006000</desc></polyline><polyline fill="none" points="146.8583192145452,181.87500273494516 142.33371591195464,182.06250407313928 139.2634493848309,185.43752487318125 139.4250423591584,204.0000277328072 145.40398243814707,208.5 150.89814359135926,203.43753042025492 150.09017871599644,185.06252287025563 146.8583192145452,181.87500273494516 141.68734401091933,182.4375066923676 139.10185640957206,186.56253041978925 139.2634493848309,202.87503293307964 142.65690186154097,207.93750407372136 147.01991218980402,208.3125013774261 150.4133646665141,205.1250218396308 150.57495764177293,186.56253041978925 144.7576105389744,181.5 139.10185640957206,186.56253041978925 139.74822830967605,204.75002388155553 142.98008781205863,208.12500273494516 147.82787706516683,207.93750407372136 150.89814359135926,202.5000345123699 150.4133646665141,186.37502954353113 147.5046911155805,182.25000539270695" stroke="#4dd2ff" stroke-linecap="round" stroke-linejoin="round" stroke-width="0.5"><title>2024-03-05 1.2km</title><desc>1709645230000</desc></polyline><polyline fill="none" points="184.46668974973727,208.5 187.0760978218168,203.7401983908203 188.35045990359504,202.4202383677184 187.98635645164177,201.50026236867416 166.71664646896534,186.58020869659958 167.3841694642324,185.3801681251498 161.64954009640496,181.5" stroke="#4dd2ff" stroke-linecap="round" stroke-linejoin="round" stroke-width="0.5"><title>2024-01-15 1.2km</title><desc>1705303039000</desc></polyline><polyline fill="none" points="19.556318557122722,218.98206603090512 18.80868848785758,211.5 21.845935644814745,211.87952764186775 28.481152510503307,214.15668776253005 29.368963218061253,215.72900687466608 33.57438235846348,216.542273543193 33.94819739297964,232.42783120577224 32.54639101284556,237.41568926622858 26.191535423044115,237.6867671586224 25.163544077659026,238.5 24.462640887591988,238.3373535319697 23.808464576955885,235.57235590770142 19.603045436786488,235.78921898984117 18.107785297790542,236.87353306426667 16.472344520967454,236.87353306426667 16.051802607020363,235.57235590770142" stroke="#4dd2ff" stroke-linecap="round" stroke-linejoin="round" stroke-width="0.5"><title>2024-01-11 1.2km</title><desc>1704979113000</desc></polyline><polyline fill="none" points="49.96360897109844,228.05727832467528 49.91697572078556,223.1334361945046 49.264110216870904,219.23761640459998 48.51797821279615,218.5342014275957 47.81847945856862,211.98698620207142 51.68903923104517,211.5 52.24863823433407,213.06917615019483 55.13989975093864,215.01711245439947 59.70995827764273,215.17944015475223 60.03639102913439,215.9369687610888 62.6012197942473,216.31573265581392 62.974285796284676,226.65047098323703 64.46654980489984,228.38192563899793 63.72041780035943,229.68051289668074 63.67378455027938,233.63036279787775 63.48725154926069,231.52017269929638 61.38875528704375,238.5 61.15558903594501,237.7966107407119 59.66332502709702,237.63429000898032 56.632163759786636,237.47196922759758 55.83939850516617,238.17535892000888 53.64763574232347,237.47196922759758 52.7149707369972,235.63233020703774 45.53345019533299,236.7144715851755 47.25888045527972,237.90482453402365" stroke="#4dd2ff" stroke-linecap="round" stroke-linejoin="round" stroke-width="0.5"><title>2024-01-09 1.7km</title><desc>1704805357000</desc></polyline><polyline fill="none" points="71.5,222.18889738753205 98.5,227.81110261246795" stroke="#4dd2ff" stroke-linecap="round" stroke-linejoin="round" stroke-width="0.5"><title>2023-05-14 0.6km</title><desc>1684021552000</desc></polyline><polyline fill="none" points="127.54283604142256,231.61088526468666 128.5,230.29663858027197 127.74224519939162,229.48180068968213 112.94608567212708,219.1251440691267 109.75553914322518,223.38353885644756 102.93574593798257,218.38911473531334 102.15805022150744,218.80970330437412 101.5,219.8874569080217" stroke="#4dd2ff" stroke-linecap="round" stroke-linejoin="round" stroke-width="0.5"><title>2023-04-30 1.6km</title><desc>1682851479000</desc></polyline><polyline fill="none" points="131.5,219.36402091188938 132.09857482183725,219.1667554157175 134.98456057009753,221.59028858963575 139.08907363424078,224.07015065806627 142.70190023758914,219.5894669397385 158.5,230.8332445842825" stroke="#4dd2ff" stroke-linecap="round" stroke-linejoin="round" stroke-width="0.5"><title>2023-04-30 1.4km</title><desc>1682826014000</desc></polyline><polyline fill="none" points="187.70937042473815,231.77427739025734 188.5,230.26314475858817 188.14421669126023,229.74206149486417 172.84553440695163,218.9552870773041 171.6200585651677,219.89329403577722 169.2481698389165,223.07205775055627 163.06149341142736,218.43416991295817 162.9231332356576,218.8250079326681 163.10102489008568,218.2257226097281 161.59882869687863,220.72707374933816 163.2789165446302,221.8735143247759 163.160322108306,222.3164552491944 163.29868228407577,222.00379118448473 161.5,224.29664793230768 162.54758418735582,223.67132636424503 162.64641288435087,223.95793236218742 161.59882869687863,224.140317751182" stroke="#4dd2ff" stroke-linecap="round" stroke-linejoin="round" stroke-width="0.5"><title>2023-04-23 2.0km</title><desc>1682246510000</desc></polyline><polyline fill="none" points="11.5,249.17492319719167 18.172667757840827,253.92244512055186 21.72995090018958,249.20404945217888 38.5,260.8250768028083" stroke="#4dd2ff" stroke-linecap="round" stroke-linejoin="round" stroke-width="0.5"><title>2023-04-22 1.3km</title><desc>1682133059000</desc></polyline><polyline fill="none" points="41.5,248.5043987899262 46.84824281150941,252.39902495361457 47.75399361026939,251.65990496963786 50.40654952079058,247.82212027975766 51.16134185309056,248.0495467225992 67.35702875407878,259.5910805608728 67.46485623007175,260.2448902735923 67.01198083080817,260.9839768001111 68.5,262.1778797202278" stroke="#4dd2ff" stroke-linecap="round" stroke-linejoin="round" stroke-width="0.5"><title>2023-04-21 1.4km</title><desc>1682048673000</desc></polyline><polyline fill="none" points="98.5,260.78285597755166 83.11831442464609,249.73631806582853 79.6175040518865,254.49534818643588 72.44084278773516,249.73631806582853 71.5,249.53441721544368 71.56564019457437,249.21714402244834" stroke="#4dd2ff" stroke-linecap="round" stroke-linejoin="round" stroke-width="0.5"><title>2023-04-20 1.3km</title><desc>1681986639000</desc></polyline><polyline fill="none" points="101.5,245.8656931463629 127.42287234042305,264.13430685365165 128.5,262.61987064994173" stroke="#4dd2ff" stroke-linecap="round" stroke-linejoin="round" stroke-width="0.5"><title>2023-04-20 1.2km</title><desc>1681962092000</desc></polyline></svg>