<?xml version="1.0" encoding="utf-8" ?>
<svg baseProfile="full" height="200mm" version="1.1" viewBox="0,0,200,200" width="200mm" xmlns="http://www.w3.org/2000/svg" xmlns:ev="http://www.w3.org/2001/xml-events" xmlns:xlink="http://www.w3.org/1999/xlink"><defs /><rect fill="#1a1a1a" height="200" width="200" x="0" y="0" /><text alignment-baseline="middle" fill="#e1ed5e" style="dominant-baseline: central; font-size:9.0px; font-family:Arial;" text-anchor="middle" x="100.0" y="100.0">2024</text><line stroke="#e1ed5e" stroke-width="0.3" x1="100.0" x2="100.0" y1="15.0" y2="10.0" /><path d="M 100.0 14.0 a86.0,86.0 0 0,1 42.35913384403234,11.155469271406648" fill="none" id="id49" stroke="none" /><text fill="#e1ed5e" style="font-size:6.75px; font-family:Arial;" text-anchor="middle"><textPath startOffset="22.145653131862478" xlink:href="#id49">January</textPath></text><path d="M 102.87502721639298 79.19773525538626 l 1.794586444307777 -12.984733538773797 a34.10815950387583,34.10815950387583 0 0,0 0.5793106756648214,0.08513871966398545 l -2.0172222255802805 12.952013745810929" fill="#ff5307" stroke="none" /><path d="M 103.58742460773223 79.30868818359171 l 1.5642004018331679 -9.021892247692648 a30.15648746114315,30.15648746114315 0 0,0 0.5093075552652688,0.09281280249664513 l -1.7188426906494905 8.993711271264637" fill="#ff1402" stroke="none" /><path d="M 104.9986988182912 79.60360301121754 l 2.2136902531148643 -9.032611656359814 a30.299919240044126,30.299919240044126 0 0,0 0.5041253046747356,0.12814668108164912 l -2.368420851014994 8.993279743442896" fill="#ff1602" stroke="none" /><line stroke="#e1ed5e" stroke-width="0.3" x1="143.13028292997686" x2="145.6673583964461" y1="26.7553504044142" y2="22.446841604673864" /><path d="M 143.63769802327073 25.89364864446614 a86.0,86.0 0 0,1 29.32050498858742,28.57503671076993" fill="none" id="id50" stroke="none" /><text fill="#e1ed5e" style="font-size:6.75px; font-family:Arial;" text-anchor="middle"><textPath startOffset="20.669276256404974" xlink:href="#id50">February</textPath></text><line stroke="#e1ed5e" stroke-width="0.3" x1="172.87174338648825" x2="177.1583165268699" y1="56.24261187166439" y2="53.66864786411523" /><path d="M 173.72905801456457 55.72781907015455 a86.0,86.0 0 0,1 12.242430191666344,42.057860355516425" fill="none" id="id51" stroke="none" /><text fill="#e1ed5e" style="font-size:6.75px; font-family:Arial;" text-anchor="middle"><textPath startOffset="22.145653131862474" xlink:href="#id51">March</textPath></text><path d="M 118.70294669586156 90.45014215332178 l 8.158196004033956 -4.1656330091076965 a30.160167051249843,30.160167051249843 0 0,0 0.23148658775566477,0.46312824222894045 l -8.228502505001357 4.024972910715006" fill="#ff1402" stroke="none" /><path d="M 119.31412917781788 91.75594674310238 l 8.412213007149536 -3.5906735116464024 a30.1464891595024,30.1464891595024 0 0,0 0.19907328211352668,0.47770340698873026 l -8.472612133799545 3.4457375952163942" fill="#ff1402" stroke="none" /><path d="M 120.43855184770803 95.1765574152323 l 11.910742799752532 -2.810902869470382 a33.237931564747925,33.237931564747925 0 0,0 0.12628694872173724,0.5564435975737937 l -11.957240610031935 2.6060249379575624" fill="#ff4506" stroke="none" /><path d="M 120.9064616781168 98.02013634271609 l 9.115837402375591 -0.863279279705382 a30.15662288517543,30.15662288517543 0 0,0 0.044382474526246496,0.5157916296468787 l -9.12931349959958 0.7066666026828413" fill="#ff1402" stroke="none" /><line stroke="#e1ed5e" stroke-width="0.3" x1="184.99686870605535" x2="189.99668451229388" y1="99.2704041080226" y2="99.22748670261217" /><path d="M 185.99683186730306 99.26182062694052 a86.0,86.0 0 0,1 -10.086455211305974,41.156179273409016" fill="none" id="id52" stroke="none" /><text fill="#e1ed5e" style="font-size:6.75px; font-family:Arial;" text-anchor="middle"><textPath startOffset="21.40746469413373" xlink:href="#id52">April</textPath></text><path d="M 120.65975698304385 103.76489593502545 l 12.205007256462498 2.224158892310541 a33.40601003177679,33.40601003177679 0 0,0 -0.1076527885195104,0.5632848792725488 l -12.165028175660828 -2.4333463366164048" fill="#ff4806" stroke="none" /><path d="M 119.94978838288452 106.5578916946017 l 8.782089772185905 2.886847342585056 a30.24440308219642,30.24440308219642 0 0,0 -0.16636521294454212,0.491829190909458 l -8.731239137668998 -3.037178207968674" fill="#ff1502" stroke="none" /><path d="M 119.83427380445688 106.89939002012753 l 10.598664259919865 3.6867656029403983 a32.22158298572564,32.22158298572564 0 0,0 -0.18620980152679217,0.5208619558916721 l -10.533814288349129 -3.8681625152129917" fill="#ff3505" stroke="none" /><path d="M 119.58574465831526 107.57618678355244 l 11.006329900960276 4.2574848485871195 a32.801079405068045,32.801079405068045 0 0,0 -0.20764852184052918,0.5234099210921624 l -10.931622704153623 -4.445795786892846" fill="#ff3e05" stroke="none" /><path d="M 119.4528033332814 107.91128576633889 l 26.016029066252724 10.580492534789077 a49.08523794905135,49.08523794905135 0 0,0 -0.3241359008719213,0.7778081645611227 l -25.830567320844317 -11.025533208791478" fill="#d4ff1c" stroke="none" /><path d="M 119.0197475246899 108.90220220490707 l 14.295620024973127 6.6910719998584405 a36.78401711877247,36.78401711877247 0 0,0 -0.27258838282088915,0.5696048805165723 l -14.178652384192327 -6.9354893824401165" fill="#ff7c0b" stroke="none" /><path d="M 118.8641267826498 109.22738970284198 l 10.916555330948919 5.3398342479308285 a33.15257215938438,33.15257215938438 0 0,0 -0.2544540218049467,0.5090784956016265 l -10.823281395932241 -5.526444599696201" fill="#ff4406" stroke="none" /><line stroke="#e1ed5e" stroke-width="0.3" x1="174.33088141563837" x2="178.70328620479359" y1="141.23008692659167" y2="143.65538615756765" /><path d="M 175.20536237346943 141.71514677278685 a86.0,86.0 0 0,1 -30.301960400862466,31.631185727798858" fill="none" id="id53" stroke="none" /><text fill="#e1ed5e" style="font-size:6.75px; font-family:Arial;" text-anchor="middle"><textPath startOffset="22.145653131862474" xlink:href="#id53">May</textPath></text><path d="M 118.36410011445183 110.18625677009912 l 16.345936242491607 9.06681529048388 a39.69215801226153,39.69215801226153 0 0,0 -0.33561918729890555,0.5930069455477579 l -16.187883690171322 -9.346079006130761" fill="#ffa80f" stroke="none" /><path d="M 117.62189284568427 111.42229804090321 l 13.553278835586159 8.785071595157543 a37.15143492471154,37.15143492471154 0 0,0 -0.351480103741294,0.5321856749490562 l -13.40047429292414 -9.01643714844566" fill="#ff820b" stroke="none" /><path d="M 117.21940702142032 112.02048342749411 l 13.770418852398619 9.612821823597082 a37.79377202366162,37.79377202366162 0 0,0 -0.3759308735877946,0.5287938528143342 l -13.603372880280864 -9.84779290312092" fill="#ff8b0c" stroke="none" /><path d="M 116.79662413953412 112.60449989151573 l 15.29771137879442 11.479687811827258 a40.12598247635691,40.12598247635691 0 0,0 -0.41816628198412104,0.5473930864352042 l -15.098393119455995 -11.74060181150334" fill="#ffae10" stroke="none" /><path d="M 116.1254893667686 113.45245675266167 l 12.839701027541304 10.711335256966386 a37.72096365236694,37.72096365236694 0 0,0 -0.41907170904036845,0.49366541950872994 l -12.653934754993822 -10.930167458924673" fill="#ff8a0c" stroke="none" /><path d="M 115.6541949942343 113.99807769240083 l 20.482619779323418 18.315684908772234 a48.47730020765792,48.47730020765792 0 0,0 -0.5600335470169632,0.6155749716091735 l -20.165188531464572 -18.66459745593908" fill="#dcff1b" stroke="none" /><path d="M 114.91283532996324 114.78537596483092 l 8.636603295448419 8.56278661682354 a33.161917247218994,33.161917247218994 0 0,0 -0.4042723218699779,0.4008170236422424 l -8.488339053448476 -8.709783650694446" fill="#ff4406" stroke="none" /><path d="M 114.65682725009322 115.03919595460226 l 17.845678543118822 18.31123830371256 a46.56892040895903,46.56892040895903 0 0,0 -0.5772938707619256,0.5530344692742516 l -17.528712186491582 -18.614884903292396" fill="#f5ff19" stroke="none" /><path d="M 114.13192950727249 115.5334660781643 l 17.03048041183531 18.719481273661042 a46.307236953347015,46.307236953347015 0 0,0 -0.592589241930533,0.5298969542208808 l -16.7066261430814 -19.00907375776531" fill="#f9ff18" stroke="none" /><path d="M 113.59037401385872 116.0094264158162 l 9.19105799676399 10.827043209601374 a35.202127015431685,35.202127015431685 0 0,0 -0.464040583331639,0.3871191587905118 l -9.003843079270455 -10.983224552303755" fill="#ff6409" stroke="none" /><line stroke="#e1ed5e" stroke-width="0.3" x1="143.1302829299769" x2="145.66735839644613" y1="173.24464959558577" y2="177.55315839532614" /><path d="M 143.63769802327073 174.10635135553383 a86.0,86.0 0 0,1 -40.68552437913181,11.842963189579606" fill="none" id="id54" stroke="none" /><text fill="#e1ed5e" style="font-size:6.75px; font-family:Arial;" text-anchor="middle"><textPath startOffset="21.407464694133747" xlink:href="#id54">June</textPath></text><path d="M 108.4095320186766 119.2426549942271 l 7.868247665357135 18.004090465122804 a40.64832295132905,40.64832295132905 0 0,0 -0.641788483038355,0.2739413403068827 l -7.5580241071483485 -18.13650645508909" fill="#ffb510" stroke="none" /><path d="M 100.72087961077811 120.9876233191556 l 0.5514815679064805 16.05578413042556 a37.06525244005104,37.06525244005104 0 0,0 -0.6360868328572034,0.016383340459070677 l -0.27578142097853336 -16.062885188234677" fill="#ff800b" stroke="none" /><line stroke="#e1ed5e" stroke-width="0.3" x1="101.45913802915013" x2="101.54496967792366" y1="184.9874750549273" y2="189.98673829345242" /><path d="M 101.47630435890484 185.9873277026323 a86.0,86.0 0 0,1 -42.54439059252881,-10.42667462771756" fill="none" id="id55" stroke="none" /><text fill="#e1ed5e" style="font-size:6.75px; font-family:Arial;" text-anchor="middle"><textPath startOffset="22.145653131862474" xlink:href="#id55">July</textPath></text><path d="M 98.55909050195518 120.95050786540614 l -0.6467388415466274 9.403440816423018 a30.425654901232882,30.425654901232882 0 0,0 -0.5207582726558047,-0.04030998380905663 l 0.8080661089776682 -9.390953065618907" fill="#ff1802" stroke="none" /><path d="M 93.27111125876986 119.89276391827306 l -4.071480874179156 12.036609749770266 a33.706570378236265,33.706570378236265 0 0,0 -0.5465186979975093,-0.19010757277787724 l 4.277505344221687 -11.964943744423799" fill="#ff4d07" stroke="none" /><path d="M 89.97174638481275 118.45085714620012 l -8.485001938624306 15.611447881383167 a38.76830219383949,38.76830219383949 0 0,0 -0.5819967896156388,-0.3228238084877804 l 8.751742916396047 -15.463491157462238" fill="#ff9a0e" stroke="none" /><line stroke="#e1ed5e" stroke-width="0.3" x1="58.13341422392154" x2="55.67067388415222" y1="173.97424548756322" y2="178.32567169271397" /><path d="M 57.64086615596768 174.84453072859336 a86.0,86.0 0 0,1 -31.369924170532247,-30.572349798747897" fill="none" id="id56" stroke="none" /><text fill="#e1ed5e" style="font-size:6.75px; font-family:Arial;" text-anchor="middle"><textPath startOffset="22.145653131862474" xlink:href="#id56">August</textPath></text><path d="M 89.65649057296885 118.27599006163327 l -7.977153817102291 14.09486643870415 a37.195685936280015,37.195685936280015 0 0,0 -0.5529892053526486,-0.31926846656931135 l 8.21793549031534 -13.955851074858668" fill="#ff820c" stroke="none" /><path d="M 87.54013794807813 116.9041958592261 l -11.145022826129324 15.120363927253623 a39.78395429848402,39.78395429848402 0 0,0 -0.5462659195846922,-0.409928130018569 l 11.402941734624783 -14.926816769971039" fill="#ffa90f" stroke="none" /><path d="M 87.2517909369889 116.68781488649013 l -10.488573764620984 13.729879745629908 a38.277724892049704,38.277724892049704 0 0,0 -0.5187361831555202,-0.4033723935694851 l 10.722719892411732 -13.54780630043963" fill="#ff930d" stroke="none" /><path d="M 85.86807049272751 115.53346607816431 l -9.563443674405146 10.511899866919068 a35.21124532634818,35.21124532634818 0 0,0 -0.443611772776759,-0.4106004341429495 l 9.742485218495872 -10.34618168664374" fill="#ff6409" stroke="none" /><path d="M 83.8745106332314 113.45245675266167 l -11.241826015687517 9.37833109168385 a35.64007330009767,35.64007330009767 0 0,0 -0.38788819596693824,-0.4731605293412196 l 11.401161030893084 -9.183968280644136" fill="#ff6b09" stroke="none" /><path d="M 83.4222238831116 112.89097897827486 l -21.78558442542169 16.940602218137286 a48.59702325016838,48.59702325016838 0 0,0 -0.5064458307031761,-0.6629538495200205 l 22.07318223347916 -16.564127455376394" fill="#daff1b" stroke="none" /><line stroke="#e1ed5e" stroke-width="0.3" x1="26.387840678322732" x2="22.057713659400548" y1="142.50000000000003" y2="145.00000000000006" /><path d="M 25.521815274538298 143.00000000000003 a86.0,86.0 0 0,1 -11.493303480769221,-40.785679425670985" fill="none" id="id57" stroke="none" /><text fill="#e1ed5e" style="font-size:6.75px; font-family:Arial;" text-anchor="middle"><textPath startOffset="21.40746469413373" xlink:href="#id57">September</textPath></text><path d="M 80.83023694016515 108.57439118712176 l -18.783571032677276 8.401652405538462 a41.57693621225286,41.57693621225286 0 0,0 -0.2858238513614806,-0.6540209073055785 l 18.925028766055725 -8.077969428457033" fill="#ffc312" stroke="none" /><path d="M 80.41425534168474 107.57618678355246 l -16.568969180710727 6.409233221096559 a38.76538798320345,38.76538798320345 0 0,0 -0.23475085149962213,-0.6227045236816785 l 16.676550716024785 -6.123860417220736" fill="#ff9a0e" stroke="none" /><path d="M 79.73907114497094 105.5222062557868 l -15.755957071631727 4.2943561635021705 a37.33069741628051,37.33069741628051 0 0,0 -0.16320717674810192,-0.6197242335559633 l 15.82735372918456 -4.023251425573404" fill="#ff840c" stroke="none" /><path d="M 79.64726062577567 105.17358676015961 l -7.691588094483084 1.9551716158963244 a28.936197040321048,28.936197040321048 0 0,0 -0.11824222101151692,-0.48246861198384583 l 7.724017842010894 -1.822847179304379" fill="#ff0000" stroke="none" /><path d="M 79.48165901384964 104.47187691870673 l -28.862237187786327 6.290390260568353 a50.539765488478224,50.539765488478224 0 0,0 -0.17747228578666893,-0.8492691331798765 l 28.965967184397364 -5.794004676103068" fill="#c1ff1e" stroke="none" /><line stroke="#e1ed5e" stroke-width="0.3" x1="15.003131293944662" x2="10.003315487706104" y1="100.72959589197737" y2="100.7725132973878" /><path d="M 14.003168132696942 100.73817937305945 a86.0,86.0 0 0,1 10.791469493833604,-42.45332614584628" fill="none" id="id58" stroke="none" /><text fill="#e1ed5e" style="font-size:6.75px; font-family:Arial;" text-anchor="middle"><textPath startOffset="22.145653131862435" xlink:href="#id58">October</textPath></text><path d="M 79.00077361379809 100.18025310272382 l -28.766888474107922 0.24692913956941007 a49.76794824942738,49.76794824942738 0 0,0 0.0,-0.8543644845864447 l 28.766888474107922 0.2469291395693995" fill="#cbff1d" stroke="none" /><path d="M 79.01933749520258 99.09900007780938 l -22.378518346777877 -0.9610298666487688 a43.39914422029701,43.39914422029701 0 0,0 0.038353292174942114,-0.7440436220294746 l 22.358723465146365 1.3450452820549554" fill="#ffdd14" stroke="none" /><path d="M 79.56144815229197 95.17655741523228 l -14.439399314028547 -3.407658921664808 a35.836050413650185,35.836050413650185 0 0,0 0.1464371488515218,-0.5975135391137841 l 14.378774638660726 3.65502828538671" fill="#ff6e0a" stroke="none" /><path d="M 80.83023694016515 91.42560881287825 l -23.05783205109187 -10.313474992669974 a46.259283151364144,46.259283151364144 0 0,0 0.3304576722558958,-0.7221096519937326 l 22.87738991398093 10.707773626878376" fill="#faff18" stroke="none" /><path d="M 81.1358732173502 90.77261029715801 l -21.508081727155503 -10.520680556471575 a44.943314285063366,44.943314285063366 0 0,0 0.3449508236675419,-0.6901327207310806 l 21.324310990276217 10.888345133366427" fill="#fff216" stroke="none" /><path d="M 81.46374523516351 90.13048839642627 l -25.473013778979762 -13.562945064099733 a49.85875793924403,49.85875793924403 0 0,0 0.40873414484016274,-0.7520247898197372 l 25.23643428452425 13.998224687394089" fill="#caff1d" stroke="none" /><line stroke="#e1ed5e" stroke-width="0.3" x1="26.387840678322718" x2="22.05771365940052" y1="57.49999999999999" y2="54.99999999999999" /><path d="M 25.521815274538284 56.99999999999999 a86.0,86.0 0 0,1 29.574782752854787,-30.34633250058573" fill="none" id="id59" stroke="none" /><text fill="#e1ed5e" style="font-size:6.75px; font-family:Arial;" text-anchor="middle"><textPath startOffset="21.40746469413373" xlink:href="#id59">November</textPath></text><path d="M 82.18462484594161 88.88188828441811 l -22.628990240384812 -14.122163542882081 a47.674082972641045,47.674082972641045 0 0,0 0.4392424582459736,-0.6905621005957988 l 22.38323009051295 14.508539318156553" fill="#e7ff1a" stroke="none" /><path d="M 83.64595745247003 86.82634096563983 l -21.92849456277979 -17.664042983091814 a49.15807678621496,49.15807678621496 0 0,0 0.5350111814095762,-0.6526266497184293 l 21.622036562131584 18.037871914508735" fill="#d3ff1c" stroke="none" /><path d="M 86.96720088162412 83.53348406188908 l -39.09839735512763 -49.399547814332756 a84.0,84.0 0 0,0 1.1383602214590214,-0.8851957935167807 l 38.244627189033366 50.06344465947034" fill="#4dd2ff" stroke="none" /><line stroke="#e1ed5e" stroke-width="0.3" x1="56.869717070023135" x2="54.33264160355391" y1="26.7553504044142" y2="22.446841604673864" /><path d="M 56.362301976729285 25.89364864446614 a86.0,86.0 0 0,1 42.16139366436587,-11.88097634709845" fill="none" id="id60" stroke="none" /><text fill="#e1ed5e" style="font-size:6.75px; font-family:Arial;" text-anchor="middle"><textPath startOffset="22.145653131862474" xlink:href="#id60">December</textPath></text><path d="M 89.97174638481275 81.54914285379989 l -11.69751547682432 -21.522110958730497 a45.49557365016079,45.49557365016079 0 0,0 0.689390493699398,-0.3670616078209458 l 11.32633616733836 21.719743034274018" fill="#fffa17" stroke="none" /><path d="M 90.61103034731259 81.2157712731953 l -9.574752799736352 -19.15591947209902 a42.415535062136584,42.415535062136584 0 0,0 0.6540874429494742,-0.319946945086342 l 9.244505107524825 19.317460167282572" fill="#ffcf13" stroke="none" /><path d="M 90.93487009805054 81.0573650232925 l -7.669279321649051 -16.025844118700068 a38.7664156494873,38.7664156494873 0 0,0 0.6027462967764398,-0.2821157013360633 l 7.393044311001089 16.155136051606675" fill="#ff9a0e" stroke="none" /><path d="M 92.592206182469 80.34994680014964 l -7.236700154934327 -19.19620693266276 a41.51497476805751,41.51497476805751 0 0,0 0.6690056109674216,-0.2456681270405162 l 6.906105392312778 19.317605908712" fill="#ffc212" stroke="none" /></svg>