<?xml version="1.0" encoding="utf-8" ?>
<svg baseProfile="full" height="200mm" version="1.1" viewBox="0,0,200,200" width="200mm" xmlns="http://www.w3.org/2000/svg" xmlns:ev="http://www.w3.org/2001/xml-events" xmlns:xlink="http://www.w3.org/1999/xlink"><defs /><rect fill="#1a1a1a" height="200" width="200" x="0" y="0" /><text alignment-baseline="middle" fill="#e1ed5e" style="dominant-baseline: central; font-size:9.0px; font-family:Arial;" text-anchor="middle" x="100.0" y="100.0">2024</text><line stroke="#e1ed5e" stroke-width="0.3" x1="100.0" x2="100.0" y1="15.0" y2="10.0" /><path d="M 100.0 14.0 a86.0,86.0 0 0,1 42.35913384403234,11.155469271406648" fill="none" id="id49" stroke="none" /><text fill="#e1ed5e" style="font-size:6.75px; font-family:Arial;" text-anchor="middle"><textPath startOffset="22.145653131862478" xlink:href="#id49">January</textPath></text><path d="M 102.87502721639298 79.19773525538626 l 3.8273474457841514 -27.692779526696622 a48.95601234770399,48.95601234770399 0 0,0 0.8314943111422065,0.12220102965872871 l -4.3021668625340395 27.622997423739008" fill="#ffcb12" stroke="none" /><path d="M 103.58742460773223 79.30868818359171 l 3.3359989047281444 -19.241155175261266 a40.5282088572104,40.5282088572104 0 0,0 0.6844737139543369,0.12473391170154745 l -3.6658073522335353 19.181053089628353" fill="#ff3204" stroke="none" /><path d="M 104.9986988182912 79.60360301121754 l 4.721177830630808 -19.264016654858814 a40.83410844447306,40.83410844447306 0 0,0 0.6793914926837672,0.17269866070044826 l -5.051174616539969 19.180132762323097" fill="#ff3805" stroke="none" /><line stroke="#e1ed5e" stroke-width="0.3" x1="143.13028292997686" x2="145.6673583964461" y1="26.7553504044142" y2="22.446841604673864" /><path d="M 143.63769802327073 25.89364864446614 a86.0,86.0 0 0,1 29.32050498858742,28.57503671076993" fill="none" id="id50" stroke="none" /><text fill="#e1ed5e" style="font-size:6.75px; font-family:Arial;" text-anchor="middle"><textPath startOffset="20.669276256404974" xlink:href="#id50">February</textPath></text><line stroke="#e1ed5e" stroke-width="0.3" x1="172.87174338648825" x2="177.1583165268699" y1="56.24261187166439" y2="53.66864786411523" /><path d="M 173.72905801456457 55.72781907015455 a86.0,86.0 0 0,1 12.242430191666344,42.057860355516425" fill="none" id="id51" stroke="none" /><text fill="#e1ed5e" style="font-size:6.75px; font-family:Arial;" text-anchor="middle"><textPath startOffset="22.145653131862474" xlink:href="#id51">March</textPath></text><path d="M 118.70294669586156 90.45014215332178 l 17.39913434501056 -8.884121970302902 a40.53605638656238,40.53605638656238 0 0,0 0.3111240517352403,0.6224565172103009 l -17.549078309957537 8.584133596928849" fill="#ff3304" stroke="none" /><path d="M 119.31412917781788 91.75594674310238 l 17.94088106952412 -7.657895297847099 a40.50688529580255,40.50688529580255 0 0,0 0.2674884813739507,0.6418749795349626 l -18.069695395434554 7.348787808870858" fill="#ff3204" stroke="none" /><path d="M 120.43855184770803 95.1765574152323 l 25.40225976665551 -5.994864138163369 a47.100061250650015,47.100061250650015 0 0,0 0.17895587179859554,0.7885125907189253 l -25.50142650001177 5.557917213505418" fill="#ffab0f" stroke="none" /><path d="M 120.9064616781168 98.02013634271609 l 19.441513730827115 -1.8411315635749435 a40.528497678529476,40.528497678529476 0 0,0 0.05964709717839849,0.6931896832196253 l -19.470254450703255 1.5071208329796562" fill="#ff3204" stroke="none" /><line stroke="#e1ed5e" stroke-width="0.3" x1="184.99686870605535" x2="189.99668451229388" y1="99.2704041080226" y2="99.22748670261217" /><path d="M 185.99683186730306 99.26182062694052 a86.0,86.0 0 0,1 -10.086455211305974,41.156179273409016" fill="none" id="id52" stroke="none" /><text fill="#e1ed5e" style="font-size:6.75px; font-family:Arial;" text-anchor="middle"><textPath startOffset="21.40746469413373" xlink:href="#id52">April</textPath></text><path d="M 120.65975698304385 103.76489593502545 l 26.029842974110522 4.743504489574153 a47.4585252820232,47.4585252820232 0 0,0 -0.1529378270788283,0.8002353366507623 l -25.944578854749533 -5.18964239125823" fill="#ffb110" stroke="none" /><path d="M 119.94978838288452 106.5578916946017 l 18.72972403465802 6.156832309782424 a40.715708115744334,40.715708115744334 0 0,0 -0.2239646599225164,0.6621117211488345 l -18.621273953163136 -6.477445705405419" fill="#ff3605" stroke="none" /><path d="M 119.83427380445688 106.89939002012753 l 22.603965784203307 7.862832664526024 a44.932475983144144,44.932475983144144 0 0,0 -0.25966655451518944,0.7263335675967251 l -22.465659059644175 -8.24970118850367" fill="#ff840c" stroke="none" /><path d="M 119.58574465831526 107.57618678355244 l 23.473401778729514 9.080016074115635 a46.16837863216183,46.16837863216183 0 0,0 -0.2922707347631077,0.7367131769779263 l -23.314072369000282 -9.481630268307125" fill="#ff9a0e" stroke="none" /><path d="M 119.4528033332814 107.91128576633889 l 55.48486266125592 22.56521061251157 a80.89790242174959,80.89790242174959 0 0,0 -0.5342118236717108,1.2819139038261897 l -55.08932499304772 -23.514357025779038" fill="#48f9ff" stroke="none" /><path d="M 119.0197475246899 108.90220220490707 l 30.48853119448728 14.270172055208073 a54.66286299295509,54.66286299295509 0 0,0 -0.40507977623806374,0.8464609355541483 l -30.239072160289304 -14.791445492827325" fill="#d6ff1c" stroke="none" /><path d="M 118.8641267826498 109.22738970284198 l 23.28193790563542 11.388362502432745 a46.91801368023174,46.91801368023174 0 0,0 -0.3601071198529944,0.7204554659023005 l -23.083010872570693 -11.786349824498792" fill="#ffa70f" stroke="none" /><line stroke="#e1ed5e" stroke-width="0.3" x1="174.33088141563837" x2="178.70328620479359" y1="141.23008692659167" y2="143.65538615756765" /><path d="M 175.20536237346943 141.71514677278685 a86.0,86.0 0 0,1 -30.301960400862466,31.631185727798858" fill="none" id="id53" stroke="none" /><text fill="#e1ed5e" style="font-size:6.75px; font-family:Arial;" text-anchor="middle"><textPath startOffset="22.145653131862474" xlink:href="#id53">May</textPath></text><path d="M 118.36410011445183 110.18625677009912 l 34.861278221001285 19.336963373093827 a60.865108449550604,60.865108449550604 0 0,0 -0.5146482140474083,0.9093340815823421 l -34.5241966419325 -19.932554224775295" fill="#79ff26" stroke="none" /><path d="M 117.62189284568427 111.42229804090321 l 28.90532651570875 18.736083423234962 a55.446461690892946,55.446461690892946 0 0,0 -0.5245646136332661,0.7942576834058575 l -28.579437463154758 -19.22952098497988" fill="#caff1d" stroke="none" /><path d="M 117.21940702142032 112.02048342749411 l 29.36842501473105 20.50144152711128 a56.81638581062365,56.81638581062365 0 0,0 -0.5651469119969459,0.794949907010487 l -29.01216300420414 -21.00256866083127" fill="#b4ff20" stroke="none" /><path d="M 116.79662413953412 112.60449989151573 l 32.625709816144436 24.48294088276376 a61.7903338460985,61.7903338460985 0 0,0 -0.6439377324207645,0.8429351624176956 l -32.20062010636937 -25.039396958422333" fill="#6cff28" stroke="none" /><path d="M 116.1254893667686 113.45245675266167 l 27.383466028212318 22.844261287452966 a56.66110606091292,56.66110606091292 0 0,0 -0.6294925753195699,0.7415406708898868 l -26.98727888938563 -23.31096874079241" fill="#b7ff1f" stroke="none" /><path d="M 115.6541949942343 113.99807769240083 l 43.68365912047233 39.06219735233568 a79.60134244321068,79.60134244321068 0 0,0 -0.9195937472759887,1.0107946173700268 l -43.00666767235445 -39.80632954526338" fill="#46fff4" stroke="none" /><path d="M 114.91283532996324 114.78537596483092 l 18.419442355609597 18.2620121703503 a46.937944120566826,46.937944120566826 0 0,0 -0.5722139498739676,0.5673232617414247 l -18.103236485605663 -18.575515442320384" fill="#ffa80f" stroke="none" /><path d="M 114.65682725009322 115.03919595460226 l 38.05980615028926 39.052713996116466 a75.53130582206947,75.53130582206947 0 0,0 -0.9363274801907726,0.8969805454382683 l -37.38380618423318 -39.70030667186032" fill="#3fffbd" stroke="none" /><path d="M 114.13192950727249 115.5334660781643 l 36.32121813438599 39.92338127060061 a74.97320871361451,74.97320871361451 0 0,0 -0.9594249158389755,0.8579236758508272 l -35.630528191723634 -40.54100047633482" fill="#3effb5" stroke="none" /><path d="M 113.59037401385872 116.0094264158162 l 19.6019380730013 23.09103376162333 a51.28913693716291,51.28913693716291 0 0,0 -0.676102356328184,0.5640286320625444 l -19.20266138251122 -23.424124577597745" fill="#fff216" stroke="none" /><line stroke="#e1ed5e" stroke-width="0.3" x1="143.1302829299769" x2="145.66735839644613" y1="173.24464959558577" y2="177.55315839532614" /><path d="M 143.63769802327073 174.10635135553383 a86.0,86.0 0 0,1 -40.68552437913181,11.842963189579606" fill="none" id="id54" stroke="none" /><text fill="#e1ed5e" style="font-size:6.75px; font-family:Arial;" text-anchor="middle"><textPath startOffset="21.407464694133747" xlink:href="#id54">June</textPath></text><path d="M 108.4095320186766 119.2426549942271 l 16.780756201698477 38.39765416367798 a62.90433896357582,62.90433896357582 0 0,0 -0.9931844009481778,0.4239313623696989 l -16.119136725579867 -38.68006017570708" fill="#5cff2a" stroke="none" /><path d="M 100.72087961077811 120.9876233191556 l 1.1761548612042865 34.24246548644215 a55.262658724152104,55.262658724152104 0 0,0 -0.9483774492017463,0.02442683896502742 l -0.5881640979317964 -34.25761004275722" fill="#ccff1d" stroke="none" /><line stroke="#e1ed5e" stroke-width="0.3" x1="101.45913802915013" x2="101.54496967792366" y1="184.9874750549273" y2="189.98673829345242" /><path d="M 101.47630435890484 185.9873277026323 a86.0,86.0 0 0,1 -42.54439059252881,-10.42667462771756" fill="none" id="id55" stroke="none" /><text fill="#e1ed5e" style="font-size:6.75px; font-family:Arial;" text-anchor="middle"><textPath startOffset="22.145653131862474" xlink:href="#id55">July</textPath></text><path d="M 98.55909050195518 120.95050786540614 l -1.3793117969514572 20.054890810345743 a41.10226719671439,41.10226719671439 0 0,0 -0.7034966293110425,-0.05445508833231195 l 1.7233774210377357 -20.028257955018375" fill="#ff3d05" stroke="none" /><path d="M 93.27111125876986 119.89276391827306 l -8.683321984168565 25.670698520991944 a48.09953584909533,48.09953584909533 0 0,0 -0.7798863963776435,-0.2712849723185774 l 9.12271415259123 -25.517855116104776" fill="#ffbc11" stroke="none" /><path d="M 89.97174638481275 118.45085714620012 l -18.096119359574146 33.29482141321517 a58.894784190094626,58.894784190094626 0 0,0 -0.8841391906294959,-0.49041710511979775 l 18.665002738359746 -32.97927139266222" fill="#95ff23" stroke="none" /><line stroke="#e1ed5e" stroke-width="0.3" x1="58.13341422392154" x2="55.67067388415222" y1="173.97424548756322" y2="178.32567169271397" /><path d="M 57.64086615596768 174.84453072859336 a86.0,86.0 0 0,1 -31.369924170532247,-30.572349798747897" fill="none" id="id56" stroke="none" /><text fill="#e1ed5e" style="font-size:6.75px; font-family:Arial;" text-anchor="middle"><textPath startOffset="22.145653131862474" xlink:href="#id56">August</textPath></text><path d="M 89.65649057296885 118.27599006163327 l -17.01302235027778 30.06038033662489 a55.54083663540296,55.54083663540296 0 0,0 -0.825727025662279,-0.4767337205432694 l 17.52654184380046 -29.763899718805444" fill="#c8ff1d" stroke="none" /><path d="M 87.54013794807813 116.9041958592261 l -23.769194725666004 32.24747765138915 a61.06088407391269,61.06088407391269 0 0,0 -0.8384154008180434,-0.6291625472396404 l 24.319263115394815 -31.834696076885493" fill="#76ff27" stroke="none" /><path d="M 87.2517909369889 116.68781488649013 l -22.36917376439073 29.281966517712007 a57.84852097501219,57.84852097501219 0 0,0 -0.7839577993832798,-0.6096103265267946 l 22.868541508409237 -28.893655139564416" fill="#a5ff21" stroke="none" /><path d="M 85.86807049272751 115.53346607816431 l -20.396131842093464 22.418921770865346 a51.3085837262027,51.3085837262027 0 0,0 -0.646415415714186,-0.5983124583632451 l 20.77797702912162 -22.065491566369726" fill="#fff216" stroke="none" /><path d="M 83.8745106332314 113.45245675266167 l -23.97564866466375 20.001338839556233 a52.22315301608941,52.22315301608941 0 0,0 -0.5683698919626178,-0.6933188525426703 l 24.315465375865 -19.586817705315067" fill="#fdff18" stroke="none" /><path d="M 83.4222238831116 112.89097897827486 l -46.462515734490076 36.129533261153526 a79.85667797324733,79.85667797324733 0 0,0 -0.8322131461666665,-1.0893937227330381 l 47.07588085801104 -35.32661862517962" fill="#46fff8" stroke="none" /><line stroke="#e1ed5e" stroke-width="0.3" x1="26.387840678322732" x2="22.057713659400548" y1="142.50000000000003" y2="145.00000000000006" /><path d="M 25.521815274538298 143.00000000000003 a86.0,86.0 0 0,1 -11.493303480769221,-40.785679425670985" fill="none" id="id57" stroke="none" /><text fill="#e1ed5e" style="font-size:6.75px; font-family:Arial;" text-anchor="middle"><textPath startOffset="21.40746469413373" xlink:href="#id57">September</textPath></text><path d="M 80.83023694016515 108.57439118712176 l -40.06006667589257 17.91835828064966 a64.88480950796853,64.88480950796853 0 0,0 -0.4460556221301877,-1.0206625559928864 l 40.36175618003973 -17.228033654880925" fill="#41ff2d" stroke="none" /><path d="M 80.41425534168474 107.57618678355246 l -35.336944661660226 13.669089319161161 a58.88856899958671,58.88856899958671 0 0,0 -0.35661043099161177,-0.9459515360731594 l 35.56638577646628 -13.060469502893858" fill="#95ff23" stroke="none" /><path d="M 79.73907114497094 105.5222062557868 l -33.60301881543254 9.158652204133464 a55.828778096662994,55.828778096662994 0 0,0 -0.24407948109961913,-0.9268095457876846 l 33.75528777733689 -8.580462153972976" fill="#c4ff1e" stroke="none" /><path d="M 79.64726062577567 105.17358676015961 l -16.403991092665827 4.169830388447473 a37.92567308075752,37.92567308075752 0 0,0 -0.1549759912187726,-0.6323549298592684 l 16.47315461040089 -3.887619633980105" fill="#ff0000" stroke="none" /><path d="M 79.48165901384964 104.47187691870673 l -61.555022958451104 13.41563075612019 a84.0,84.0 0 0,0 -0.29496915670253276,-1.4115341948583637 l 61.776249825978 -12.35698010997642" fill="#4dd2ff" stroke="none" /><line stroke="#e1ed5e" stroke-width="0.3" x1="15.003131293944662" x2="10.003315487706104" y1="100.72959589197737" y2="100.7725132973878" /><path d="M 14.003168132696942 100.73817937305945 a86.0,86.0 0 0,1 10.791469493833604,-42.45332614584628" fill="none" id="id58" stroke="none" /><text fill="#e1ed5e" style="font-size:6.75px; font-family:Arial;" text-anchor="middle"><textPath startOffset="22.145653131862435" xlink:href="#id58">October</textPath></text><path d="M 79.00077361379809 100.18025310272382 l -61.35167100685613 0.5266303078452179 a82.35393120912997,82.35393120912997 0 0,0 0.0,-1.4137668211380483 l 61.35167100685613 0.5266303078451954" fill="#4ae6ff" stroke="none" /><path d="M 79.01933749520258 99.09900007780938 l -47.72707679067077 -2.049606034363663 a68.77106596967127,68.77106596967127 0 0,0 0.060775317894021144,-1.1790249308872656 l 47.68485988332018 2.8686027586276404" fill="#34ff58" stroke="none" /><path d="M 79.56144815229197 95.17655741523228 l -30.79517192303416 -7.267576722930255 a52.64111700292689,52.64111700292689 0 0,0 0.21510783128410038,-0.8777133573665444 l 30.665876565233763 7.795145904904918" fill="#f6ff19" stroke="none" /><path d="M 80.83023694016515 91.42560881287825 l -49.17586159529199 -21.995737399866574 a74.87093676003047,74.87093676003047 0 0,0 0.5348477926123774,-1.168738951516503 l 48.79102933782457 22.836665333597747" fill="#3effb3" stroke="none" /><path d="M 81.1358732173502 90.77261029715801 l -45.87068063689634 -22.4376485086258 a72.06434580692064,72.06434580692064 0 0,0 0.5531113100713506,-1.1065931347204707 l 45.478749413613244 23.22177349951004" fill="#39ff8a" stroke="none" /><line stroke="#e1ed5e" stroke-width="0.3" x1="26.387840678322718" x2="22.05771365940052" y1="57.49999999999999" y2="54.99999999999999" /><path d="M 25.521815274538284 56.99999999999999 a86.0,86.0 0 0,1 29.574782752854787,-30.34633250058573" fill="none" id="id59" stroke="none" /><text fill="#e1ed5e" style="font-size:6.75px; font-family:Arial;" text-anchor="middle"><textPath startOffset="21.40746469413373" xlink:href="#id59">November</textPath></text><line stroke="#e1ed5e" stroke-width="0.3" x1="56.869717070023135" x2="54.33264160355391" y1="26.7553504044142" y2="22.446841604673864" /><path d="M 56.362301976729285 25.89364864446614 a86.0,86.0 0 0,1 42.16139366436587,-11.88097634709845" fill="none" id="id60" stroke="none" /><text fill="#e1ed5e" style="font-size:6.75px; font-family:Arial;" text-anchor="middle"><textPath startOffset="22.145653131862474" xlink:href="#id60">December</textPath></text></svg>