<?xml version="1.0" encoding="utf-8" ?>
<svg baseProfile="full" height="200mm" version="1.1" viewBox="0,0,200,200" width="200mm" xmlns="http://www.w3.org/2000/svg" xmlns:ev="http://www.w3.org/2001/xml-events" xmlns:xlink="http://www.w3.org/1999/xlink"><defs /><rect fill="#1a1a1a" height="200" width="200" x="0" y="0" /><text alignment-baseline="middle" fill="#e1ed5e" style="dominant-baseline: central; font-size:9.0px; font-family:Arial;" text-anchor="middle" x="100.0" y="100.0">2021</text><line stroke="#e1ed5e" stroke-width="0.3" x1="100.0" x2="100.0" y1="15.0" y2="10.0" /><path d="M 100.0 14.0 a86.0,86.0 0 0,1 42.46469731375804,11.215312516191453" fill="none" id="id13" stroke="none" /><text fill="#e1ed5e" style="font-size:6.75px; font-family:Arial;" text-anchor="middle"><textPath startOffset="22.20632615414155" xlink:href="#id13">January</textPath></text><path d="M 100.0 79.0 l 0.0 -62.85606996508557 a83.85606996508557,83.85606996508557 0 0,0 1.4434443981376097,0.012424181646430627 l -1.0819639188650814 62.846757160047694" fill="#4dd4ff" stroke="none" /><path d="M 100.36148047927253 79.00311137660856 l 1.084441437817585 -62.990665870174325 a84.0,84.0 0 0,0 1.4454934592205289,0.03733283143056143 l -2.1685615322329816 62.9626662466014" fill="#4dd2ff" stroke="none" /><path d="M 100.72285384407766 79.0124445844662 l 2.16332471848434 -62.81061902481386 a83.84786262171463,83.84786262171463 0 0,0 1.4420202033520064,0.06209642332641207 l -3.244185754225678 62.764074874963256" fill="#4dd4ff" stroke="none" /><path d="M 101.80526077348638 79.07773832637324 l 5.407986892324307 -62.67643907768468 a83.90931836927078,83.90931836927078 0 0,0 1.43794548971836,0.13655025073201824 l -6.486057509132911 62.57406328243748" fill="#4dd3ff" stroke="none" /><path d="M 102.16513564639614 79.11191278185805 l 6.477679053342159 -62.49323235824025 a83.8280543746113,83.8280543746113 0 0,0 1.4339918243503624,0.16112568986884832 l -7.5524375812022475 62.3724707149008" fill="#4dd4ff" stroke="none" /><path d="M 102.52436894288641 79.15227682838746 l 7.529069677519477 -62.179484824921396 a83.63365886886677,83.63365886886677 0 0,0 1.4276873764518043,0.1853547963655062 l -8.598271782479127 62.04067170539175" fill="#4cd7ff" stroke="none" /><path d="M 105.01212808612495 79.60689891045804 l 7.0644695718062485 -28.743567531854666 a50.59897641455302,50.59897641455302 0 0,0 0.8440176990311421,0.21515890432103363 l -7.558196159522415 28.617705631364764" fill="#ffd013" stroke="none" /><path d="M 105.36241919743992 79.69619591428918 l 15.98196261655472 -60.512732392610864 a83.58764982563804,83.58764982563804 0 0,0 1.3879614251918715,0.3793822880515246 l -17.021221930970302 60.22866356373304" fill="#4cd7ff" stroke="none" /><path d="M 106.40334571778207 80.00007090966166 l 19.049143882384865 -59.49726028712853 a83.47234479612658,83.47234479612658 0 0,0 1.364642373153048,0.4499011349915472 l -20.07046907778033 59.16054542787775" fill="#4cd9ff" stroke="none" /><path d="M 109.41281617654863 81.2277094730956 l 28.12383181629317 -56.088287679578855 a83.74429002593257,83.74429002593257 0 0,0 1.2830403352461612,0.6572230932700712 l -29.085132639128084 55.595872060996285" fill="#4dd5ff" stroke="none" /><path d="M 110.05341064243156 81.56283822128135 l 29.968097057445597 -54.959125146690575 a83.59866035414876,83.59866035414876 0 0,0 1.2574668091297279,0.6997789178502661 l -30.90968795564736 54.435130831280134" fill="#4cd7ff" stroke="none" /><line stroke="#e1ed5e" stroke-width="0.3" x1="143.23703022742887" x2="145.7803849466894" y1="26.81831364943548" y2="22.513508569990506" /><path d="M 143.74570117128098 25.957352633546492 a86.0,86.0 0 0,1 28.547481713284135,27.462654790039103" fill="none" id="id14" stroke="none" /><text fill="#e1ed5e" style="font-size:6.75px; font-family:Arial;" text-anchor="middle"><textPath startOffset="19.985693538727396" xlink:href="#id14">February</textPath></text><path d="M 110.68208982089419 81.91981866633111 l 31.946995271260096 -54.072515514749114 a83.8048361271224,83.8048361271224 0 0,0 1.2356741094938888,0.7444798249180891 l -32.87303144697162 53.51458908037241" fill="#4dd4ff" stroke="none" /><path d="M 111.60114157652 82.49532879139004 l 34.551138572574935 -52.13334537871136 a83.54332000331675,83.54332000331675 0 0,0 1.1918660231755118,0.8047532592233908 l -35.44340929015699 51.5308802071893" fill="#4cd8ff" stroke="none" /><path d="M 112.77801427241765 83.33499621200491 l 38.11514392816959 -49.709524844875936 a83.64025109279513,83.64025109279513 0 0,0 1.1349880304636901,0.8858761606587373 l -38.96516451379271 49.046070294993974" fill="#4cd7ff" stroke="none" /><path d="M 113.34407831869373 83.78471172551755 l 39.88679232420627 -48.46912768605006 a83.77111230941335,83.77111230941335 0 0,0 1.105549161766915,0.9258656290879624 l -40.715199022932296 47.77536089956828" fill="#4dd5ff" stroke="none" /><path d="M 114.16331599549186 84.49514656593476 l 42.38542958875675 -46.40014200931082 a83.84503019259094,83.84503019259094 0 0,0 1.0572144275229105,0.9825655909919015 l -43.17785190007451 45.663671832244276" fill="#4dd4ff" stroke="none" /><path d="M 115.19652480421416 85.50635884689758 l 45.45187008901024 -43.34958836278551 a83.80970709859434,83.80970709859434 0 0,0 0.9866903967074564,1.0525325202091294 l -46.19132780768816 42.560786425698325" fill="#4dd4ff" stroke="none" /><path d="M 116.82858285166822 87.43820079747576 l 26.93642539212029 -20.10686045236709 a54.61334333499461,54.61334333499461 0 0,0 0.5558530155389573,0.7581828885149545 l -27.278541020172877 19.640215120180642" fill="#e9ff1a" stroke="none" /><path d="M 117.04232023915458 87.72973835380427 l 50.94262979268388 -36.678068932503855 a83.77286253479244,83.77286253479244 0 0,0 0.8324923435197754,1.177501381505633 l -51.56643475600754 35.79574105066643" fill="#4dd5ff" stroke="none" /><line stroke="#e1ed5e" stroke-width="0.3" x1="172.23445277983987" x2="176.4835382374775" y1="55.19839476539836" y2="52.563006222186495" /><path d="M 173.08426987136738 54.67131705675599 a86.0,86.0 0 0,1 12.851231095245387,41.99856678651699" fill="none" id="id15" stroke="none" /><text fill="#e1ed5e" style="font-size:6.75px; font-family:Arial;" text-anchor="middle"><textPath startOffset="22.20632615414155" xlink:href="#id15">March</textPath></text><path d="M 118.03404312379186 89.2402003453031 l 53.88493979102354 -32.14981535626442 a83.74709048014998,83.74709048014998 0 0,0 0.7279629123052157,1.2443245897746618 l -54.430362377799085 31.217511354135862" fill="#4dd5ff" stroke="none" /><path d="M 118.21658344932153 89.55222093294921 l 32.46985293644119 -18.62247389930864 a58.43110850408455,58.43110850408455 0 0,0 0.4928868753481578,0.8767907534488733 l -32.785597453081785 18.060799635924976" fill="#abff21" stroke="none" /><path d="M 118.3937258080291 89.86733742301442 l 54.9329819673813 -30.261262804088226 a83.71663682251092,83.71663682251092 0 0,0 0.6844508810997314,1.2681835326043263 l -55.4457409476995 29.311198288151438" fill="#4dd6ff" stroke="none" /><path d="M 118.56541770881063 90.18545643968196 l 38.229578717892856 -20.209933948391846 a64.2428273722467,64.2428273722467 0 0,0 0.508407233161451,0.98208095169576 l -38.571795384214425 19.54888027443574" fill="#55ff2b" stroke="none" /><path d="M 119.196687751892 91.48605970444005 l 57.39580806434606 -25.4556665916024 a83.78749672492188,83.78749672492188 0 0,0 0.573382937066535,1.3234468731716098 l -57.82548171125528 24.463920573844188" fill="#4dd5ff" stroke="none" /><path d="M 119.47837535516314 92.15188598940014 l 58.08691298048873 -23.404042035458044 a83.62458497427633,83.62458497427633 0 0,0 0.5264623581935794,1.3397892776082052 l -58.48116888856401 22.400703752954055" fill="#4cd7ff" stroke="none" /><path d="M 119.61058180528143 92.48833698450437 l 58.61090479970348 -22.450397966780265 a83.76351273077947,83.76351273077947 0 0,0 0.5041582695312486,1.3508935106220903 l -58.98866765773636 21.43818131912884" fill="#4dd5ff" stroke="none" /><path d="M 119.85752413597 93.16781622104841 l 59.26087136808964 -20.389307413918488 a83.67036566132782,83.67036566132782 0 0,0 0.4568509789444481,1.3659262779537327 l -59.60305964080585 19.36620803304244" fill="#4cd6ff" stroke="none" /><path d="M 120.08093135843002 93.85539295169968 l 59.95469682320353 -18.345665651803078 a83.69871704724108,83.69871704724108 0 0,0 0.40970164437012463,1.3813102712186196 l -60.261604364685354 17.31092599383793" fill="#4cd6ff" stroke="none" /><path d="M 120.67395015179393 96.31383870115 l 61.57437539902709 -10.978699180865522 a83.54546779331217,83.54546779331217 0 0,0 0.24024548945048965,1.4179424782541863 l -61.754232749997804 9.917170914295498" fill="#4cd8ff" stroke="none" /><path d="M 120.78858239683441 97.02765380044208 l 49.76614404282565 -7.1155505598529585 a71.2722602700644,71.2722602700644 0 0,0 0.16319311571313908,1.2159782654455915 l -49.88125315759663 6.257853952342702" fill="#37ff77" stroke="none" /><path d="M 120.87857604477298 97.74499172005257 l 62.42292055433933 -6.742040377019701 a83.78595479069124,83.78595479069124 0 0,0 0.1425273872658254,1.4352313391192195 l -62.52972506728738 5.666533507196046" fill="#4dd5ff" stroke="none" /><path d="M 120.98425023603335 99.18683210126433 l 40.2566542452666 -1.559999455522111 a61.28686894416307,61.28686894416307 0 0,0 0.03177667404385167,1.054513110494183 l -40.2775426137661 0.8668161976029289" fill="#80ff26" stroke="none" /><line stroke="#e1ed5e" stroke-width="0.3" x1="184.98032266829074" x2="189.97916517819016" y1="98.17113171792111" y2="98.06355123074" /><path d="M 185.9800911702706 98.14961562048488 a86.0,86.0 0 0,1 -9.607161424134198,41.387399972396054" fill="none" id="id16" stroke="none" /><text fill="#e1ed5e" style="font-size:6.75px; font-family:Arial;" text-anchor="middle"><textPath startOffset="21.466115282336823" xlink:href="#id16">April</textPath></text><path d="M 120.99980553446 99.90962569577887 l 46.88685755871669 -0.2017812556421474 a67.8872917474076,67.8872917474076 0 0,0 -0.005029163989511511,1.1686005960528125 l -46.88338409743768 -0.6053288186143498" fill="#31ff3f" stroke="none" /><path d="M 120.99824983174949 100.27111621757518 l 62.73358716873308 0.8099766887425892 a83.73881590605085,83.73881590605085 0 0,0 -0.031015012426141148,1.441145756291595 l -62.71035009362193 -1.889712260824299" fill="#4dd5ff" stroke="none" /><path d="M 120.9764740272857 100.99374915477107 l 62.66497568935606 2.9687194589540296 a83.73525702006455,83.73525702006455 0 0,0 -0.08059976684505399,1.4391629808792425 l -62.60458957162348 -4.046954156168695" fill="#4dd5ff" stroke="none" /><path d="M 120.95626037817324 101.35467743843564 l 35.82232429313136 2.3156657550778244 a56.89709216150396,56.89709216150396 0 0,0 -0.07159128461425107,0.9768061990210105 l -35.77715644985277 -2.931945090595605" fill="#c4ff1e" stroke="none" /><path d="M 120.8583938346157 102.4346265915055 l 62.247404962884914 7.2656211488032705 a83.66999820720699,83.66999820720699 0 0,0 -0.17928684003063036,1.4290925169395545 l -62.11311661360744 -8.33603142003022" fill="#4cd6ff" stroke="none" /><path d="M 120.81339534386255 102.79330883721812 l 62.32602342232268 8.364605060249069 a83.88481385401295,83.88481385401295 0 0,0 -0.2043831479112533,1.429455260463763 l -62.17280622339482 -9.43620579269324" fill="#4dd3ff" stroke="none" /><path d="M 120.70491114924044 103.5080841355445 l 61.87483604891329 10.483605998984089 a83.75668355499543,83.75668355499543 0 0,0 -0.25307902616358224,1.4194015799044897 l -61.68521058041051 -11.547126329621797" fill="#4dd5ff" stroke="none" /><path d="M 120.49622156327973 104.57218783832717 l 61.17974120397328 13.647650510665608 a83.68348345654074,83.68348345654074 0 0,0 -0.32572574184274217,1.40321797082385 l -60.93575489619998 -14.698737138838023" fill="#4cd6ff" stroke="none" /><path d="M 120.41448212921028 104.9243191809786 l 60.96574644488474 14.705971608834412 a83.71433520768454,83.71433520768454 0 0,0 -0.34996054583549235,1.397918419080447 l -60.703574584754186 -15.753217867312255" fill="#4dd6ff" stroke="none" /><path d="M 120.13307415673323 105.97154293290107 l 60.3323496829114 17.894794087062774 a83.9302476848731,83.9302476848731 0 0,0 -0.42274158009470053,1.3815439434136085 l -60.01538133031056 -18.930665003028437" fill="#4dd3ff" stroke="none" /><path d="M 119.79798401119884 107.00284435728193 l 59.14086772647456 20.919013350492172 a83.73154991707466,83.73154991707466 0 0,0 -0.492324523961359,1.3546656449722483 l -58.77201894150797 -21.93392679247055" fill="#4dd5ff" stroke="none" /><path d="M 119.67450827220406 107.3425965602758 l 58.90648679186151 21.98411067314565 a83.87507700392001,83.87507700392001 0 0,0 -0.5164536788639035,1.348297586979939 l -58.5193388334041 -22.994831826958734" fill="#4dd4ff" stroke="none" /><path d="M 119.41010516605496 108.01547362559984 l 57.980637606329935 23.94331548196639 a83.72987082328109,83.72987082328109 0 0,0 -0.5615842928739935,1.327419379035796 l -57.55990233226363 -24.93780938666835" fill="#4dd5ff" stroke="none" /><path d="M 119.12269723197855 108.67885076344098 l 57.149157240425026 25.937188720252188 a83.7595724332217,83.7595724332217 0 0,0 -0.6071587146180512,1.3077658559123164 l -56.694223908967146 -26.917074643443332" fill="#4dd5ff" stroke="none" /><path d="M 118.97047184881838 109.00673069616215 l 56.60920361604066 26.876709022166214 a83.66545636875664,83.66545636875664 0 0,0 -0.6288723724596165,1.2956633531107162 l -56.13817798696633 -27.847161331242205" fill="#4cd6ff" stroke="none" /><path d="M 118.64920377521936 109.65438752849418 l 55.728396810663874 28.849678819358598 a83.75315274204922,83.75315274204922 0 0,0 -0.673804051620316,1.2745833359788803 l -55.223540250818665 -29.804677170423613" fill="#4dd5ff" stroke="none" /><line stroke="#e1ed5e" stroke-width="0.3" x1="174.80103733775053" x2="179.2010983576182" y1="140.37084112569926" y2="142.7455964860345" /><path d="M 175.68104954172406 140.8457921977663 a86.0,86.0 0 0,1 -30.038265399797805,32.042727171017184" fill="none" id="id17" stroke="none" /><text fill="#e1ed5e" style="font-size:6.75px; font-family:Arial;" text-anchor="middle"><textPath startOffset="22.206326154141568" xlink:href="#id17">May</textPath></text><path d="M 118.30583269289576 110.29060199501025 l 30.898683854500884 17.36965824229978 a56.4462084205728,56.4462084205728 0 0,0 -0.4834160909146078,0.8428767017731853 l -30.5951157674339 -17.89895478993128" fill="#cbff1d" stroke="none" /><path d="M 117.94076556474637 110.91462005526583 l 53.63379158183273 32.629179347246804 a83.77935125754541,83.77935125754541 0 0,0 -0.7601394704876534,1.2255868601026352 l -53.064187471677116 -33.547562538714715" fill="#4dd5ff" stroke="none" /><path d="M 116.93607887273984 112.41649034213515 l 50.59014055435049 37.089576419688264 a83.72957038192462,83.72957038192462 0 0,0 -0.8621702971215008,1.155018006850566 l -49.9442089905339 -37.95490730604815" fill="#4dd5ff" stroke="none" /><path d="M 116.27256486870786 113.27417163493432 l 48.66061734856186 39.694380803409494 a83.7972893372735,83.7972893372735 0 0,0 -0.9213871098121227,1.1098701292163284 l -47.9701342388562 -40.5261121897396" fill="#4dd5ff" stroke="none" /><path d="M 116.0416608686014 113.55231037782055 l 47.95130484018004 40.510204743672936 a83.77263993373367,83.77263993373367 0 0,0 -0.940078575876878,1.0935237652158045 l -47.24688375473239 -41.329605608050265" fill="#4dd5ff" stroke="none" /><path d="M 115.32070863581623 114.36230785411682 l 45.6464053350094 42.79095317579466 a83.56724377580512,83.56724377580512 0 0,0 -0.9928323733990659,1.0409807742173998 l -44.90306641023136 -43.570341066594565" fill="#4cd7ff" stroke="none" /><path d="M 115.07121518719521 114.62390073753431 l 35.0463572534527 34.0061795496159 a69.83305647097416,69.83305647097416 0 0,0 -0.8445123510395277,0.8554865529306267 l -34.455804277357636 -34.60440659652719" fill="#34ff60" stroke="none" /><path d="M 114.55890576462653 115.13401014063108 l 43.36918909014889 45.08235427115542 a83.55641636928266,83.55641636928266 0 0,0 -1.045108399377709,0.9882152239888534 l -42.58674485638038 -45.822204131890196" fill="#4cd8ff" stroke="none" /><path d="M 114.0293411484842 115.62618273729858 l 41.907928989002215 46.67795512226426 a83.73042329319458,83.73042329319458 0 0,0 -1.080751025142322,0.9536371229210783 l -41.09823561095331 -47.39241538695763" fill="#4dd5ff" stroke="none" /><path d="M 113.48314897796784 116.09983520530334 l 40.29476396432688 48.114803190436554 a83.75908132689054,83.75908132689054 0 0,0 -1.1133172192376055,0.9161842771821581 l -39.460576616544586 -48.80128258647589" fill="#4dd5ff" stroke="none" /><path d="M 112.92097659922987 116.55440617244103 l 38.59734689020201 49.45107304327842 a83.73088403724472,83.73088403724472 0 0,0 -1.1438088175299153,0.8770238267718279 l -37.7404093441786 -50.108136211877614" fill="#4dd5ff" stroke="none" /><path d="M 112.63410532772338 116.77436683061366 l 28.856085958035433 38.31237421249433 a68.96364993008487,68.96364993008487 0 0,0 -0.9543749125940663,0.7060237444553128 l -28.1923260750228 -38.80340790568941" fill="#33ff51" stroke="none" /><path d="M 112.04921762599082 117.19931262002967 l 36.11112557846164 51.545798006452635 a83.93633833220235,83.93633833220235 0 0,0 -1.1904695477243261,0.8188158102056841 l -35.21849914611443 -52.15975460602341" fill="#4dd3ff" stroke="none" /><path d="M 111.45004920935366 117.60387380957326 l 34.272379639656855 52.69205706447472 a83.85736936788419,83.85736936788419 0 0,0 -1.2168031656603144,0.7766213513736091 l -33.36029467194961 -53.274192844672136" fill="#4dd4ff" stroke="none" /><line stroke="#e1ed5e" stroke-width="0.3" x1="143.8653032363475" x2="146.44561519142675" y1="172.8068346515853" y2="177.08958963109032" /><path d="M 144.38136562736335 173.6633856474863 a86.0,86.0 0 0,1 -40.68145358897372,12.25698825130547" fill="none" id="id18" stroke="none" /><text fill="#e1ed5e" style="font-size:6.75px; font-family:Arial;" text-anchor="middle"><textPath startOffset="21.466115282336833" xlink:href="#id18">June</textPath></text><path d="M 110.8373102113329 117.98757091392108 l 16.452626742855283 27.307771438332292 a52.881080716749764,52.881080716749764 0 0,0 -0.7837281587520952,0.4630404105164485 l -15.980130713074805 -27.58693042114249" fill="#fff817" stroke="none" /><path d="M 110.5260780823613 118.17145234162733 l 31.460521160033885 54.31114574955436 a83.76515708807138,83.76515708807138 0 0,0 -1.2538895437940332,0.7119912074731609 l -30.520982849318653 -54.84464012282215" fill="#4dd5ff" stroke="none" /><path d="M 110.21172684928248 118.3499491758327 l 30.3903735986067 54.60994200096372 a83.49656448807016,83.49656448807016 0 0,0 -1.2619002312310357,0.6880886205049388 l -29.445850555507015 -55.12497127322843" fill="#4cd8ff" stroke="none" /><path d="M 109.57404056367764 118.69057910512821 l 28.666084998031813 55.962341680766144 a83.8770873650267,83.8770873650267 0 0,0 -1.290693000807623,0.647180264952113 l -27.69853808954143 -56.44748978662756" fill="#4dd4ff" stroke="none" /><path d="M 109.2508944713604 118.85261126421891 l 27.672234168904357 56.39388441992158 a83.81737613006572,83.81737613006572 0 0,0 -1.3007152896308618,0.6244223833607923 l -26.69740621127326 -56.861861079781924" fill="#4dd4ff" stroke="none" /><path d="M 108.92500713936063 119.00905698771935 l 21.404904040004837 45.58954792525406 a71.3644398061852,71.3644398061852 0 0,0 -1.1164524971648275,0.512508582911352 l -20.61698354707259 -45.951243578499486" fill="#37ff78" stroke="none" /><path d="M 108.2653958097858 119.30500536409082 l 24.62857662745244 57.52353726847263 a83.57414902794649,83.57414902794649 0 0,0 -1.327350664239651,0.5548326853035005 l -23.634754503715325 -57.938954996796106" fill="#4cd7ff" stroke="none" /><path d="M 107.59598834532513 119.57807347666477 l 22.691792183399354 58.48634232794948 a83.73411887798122,83.73411887798122 0 0,0 -1.3482380538592713,0.5097882678252044 l -21.68168390877981 -58.86827884588132" fill="#4dd5ff" stroke="none" /><path d="M 107.2578585660854 119.70592522655815 l 21.69837896763182 58.913607861099116 a83.7824246189515,83.7824246189515 0 0,0 -1.3575962028972828,0.4867856973996406 l -20.681063204104802 -59.27838109953872" fill="#4dd5ff" stroke="none" /><path d="M 106.91757812671514 119.82793768551818 l 6.155199998832199 17.642724055029987 a39.685614763971714,39.685614763971714 0 0,0 -0.6469327190809888,0.21947470294282975 l -5.850597546813983 -17.74606174487094" fill="#ff0000" stroke="none" /><path d="M 106.57524785965236 119.94407469862006 l 7.395360701545609 22.43164507302131 a44.619273074926895,44.619273074926895 0 0,0 -0.7314982532026596,0.23420264072201868 l -7.00814110325201 -22.55562056040304" fill="#ff6209" stroke="none" /><path d="M 105.53697534728816 120.25689768951611 l 16.490254128822375 60.32921763418702 a83.54232951838495,83.54232951838495 0 0,0 -1.3904210760222233,0.36722284351797535 l -15.449342609988653 -60.60413182700857" fill="#4cd8ff" stroke="none" /><path d="M 104.48393922423573 120.51570834832081 l 13.34632299462051 61.06444721645215 a83.5059281294791,83.5059281294791 0 0,0 -1.406910018736876,0.2948316735561983 l -12.293221514454254 -61.28513487073489" fill="#4cd8ff" stroke="none" /><path d="M 104.13013068566511 120.58985236759428 l 12.33788783749449 61.50780893777924 a83.73303783985716,83.73303783985716 0 0,0 -1.4156161982591537,0.2713062135913149 l -11.277304024663632 -61.711072349719025" fill="#4dd5ff" stroke="none" /><path d="M 100.90346689309514 120.98055641714683 l 2.6894620813983496 62.455427378469594 a83.51330750579886,83.51330750579886 0 0,0 -1.4367456364848397,0.04948442473325096 l -1.6139960932388577 -62.492468601628936" fill="#4cd8ff" stroke="none" /><line stroke="#e1ed5e" stroke-width="0.3" x1="102.19456741930631" x2="102.32365962044197" y1="184.97166512339345" y2="189.96999836594603" /><path d="M 102.22038585953345 185.97133177190398 a86.0,86.0 0 0,1 -42.740103519485714,-10.115201625700543" fill="none" id="id19" stroke="none" /><text fill="#e1ed5e" style="font-size:6.75px; font-family:Arial;" text-anchor="middle"><textPath startOffset="22.20632615414155" xlink:href="#id19">July</textPath></text><path d="M 99.45781275523022 120.99299961872073 l -1.6131350502653405 62.45912979665295 a83.47995758357663,83.47995758357663 0 0,0 -1.436171891333823,-0.049464663790170706 l 2.6880272932738065 -62.42210833443669" fill="#4cd9ff" stroke="none" /><path d="M 98.01472825383883 120.90594882070398 l -5.903707041610067 62.16911992173668 a83.44880486187412,83.44880486187412 0 0,0 -1.4288319085976484,-0.14810426946733488 l 6.972971546813309 -62.05828628381359" fill="#4cd9ff" stroke="none" /><path d="M 94.81253420990036 120.34920634021253 l -15.445533254907959 60.58918862435513 a83.52690841298771,83.52690841298771 0 0,0 -1.3901644177499346,-0.3671550577355338 l 16.486188115469382 -60.31434221731602" fill="#4cd8ff" stroke="none" /><path d="M 92.06813273071674 119.44442032107085 l -10.96692143150792 26.88464427136958 a50.0354518353504,50.0354518353504 0 0,0 -0.7946786297156877,-0.3321757316715038 l 11.42807152072107 -26.691883496678102" fill="#ffc612" stroke="none" /><line stroke="#e1ed5e" stroke-width="0.3" x1="58.666819895761336" x2="56.23545636021788" y1="174.27360380694188" y2="178.64263932499728" /><path d="M 58.180547188652646 175.14741091055294 a86.0,86.0 0 0,1 -31.652253787137756,-30.449443065178592" fill="none" id="id20" stroke="none" /><text fill="#e1ed5e" style="font-size:6.75px; font-family:Arial;" text-anchor="middle"><textPath startOffset="22.20632615414155" xlink:href="#id20">August</textPath></text><path d="M 88.8546689885994 117.79835938074946 l -17.92751556761352 28.629061312757567 a54.77897224719333,54.77897224719333 0 0,0 -0.7948642718517306,-0.5073199859971607 l 18.417661641512172 -28.316226897936602" fill="#e6ff1a" stroke="none" /><path d="M 88.24862548938628 117.40417183066458 l -34.987547804649004 51.81770807965692 a83.52362251190458,83.52362251190458 0 0,0 -1.184615996977493,-0.8147896846264782 l 35.87432068624938 -51.20777760566534" fill="#4cd8ff" stroke="none" /><path d="M 83.28015986056508 112.70617746262583 l -23.29612350470234 17.703798419929207 a50.259765016825284,50.259765016825284 0 0,0 -0.5175289487352845,-0.6933146002029968 l 23.59741372013271 -17.3001709402169" fill="#ffca12" stroke="none" /><path d="M 83.06392112726016 112.41649034213515 l -40.03043158010662 29.34784791926794 a70.63599127631156,70.63599127631156 0 0,0 -0.7104642258636813,-0.9867726707674466 l 40.52967559834591 -28.654441643049356" fill="#36ff6c" stroke="none" /><path d="M 82.24976979558568 111.22182372390057 l -24.56984409687413 15.533232876623297 a50.06817095284998,50.06817095284998 0 0,0 -0.4542741425556026,-0.7324345618355538 l 24.83358287909769 -15.10800198342248" fill="#ffc712" stroke="none" /><path d="M 82.05923443525364 110.91462005526583 l -39.407300870157066 23.97421196152794 a67.12697910168572,67.12697910168572 0 0,0 -0.5920571564874914,-0.992321849337052 l 39.81413890234279 -23.292328018304776" fill="#30ff33" stroke="none" /><line stroke="#e1ed5e" stroke-width="0.3" x1="26.63291911575756" x2="22.317208475507996" y1="142.92168965132927" y2="145.44649492493687" /><path d="M 25.769776987707644 143.4266507060508 a86.0,86.0 0 0,1 -11.730757126820373,-40.83630448921669" fill="none" id="id21" stroke="none" /><text fill="#e1ed5e" style="font-size:6.75px; font-family:Arial;" text-anchor="middle"><textPath startOffset="21.46611528233685" xlink:href="#id21">September</textPath></text><path d="M 80.73074385275274 108.34839909993369 l -27.617981734781416 11.965481806601657 a51.09859913628598,51.09859913628598 0 0,0 -0.3427232167044538,-0.8100964454877533 l 27.819855932678177 -11.488310835447745" fill="#ffd914" stroke="none" /><path d="M 80.58989483394504 108.01547362559985 l -27.514621582520103 11.362263198797232 a50.76836283419065,50.76836283419065 0 0,0 -0.32660348082531193,-0.8106030548519023 l 27.706127677602804 -10.886960776102525" fill="#ffd313" stroke="none" /><path d="M 79.97269907076064 106.31721596034903 l -27.323992306894112 8.618812934975027 a49.651081864308395,49.651081864308395 0 0,0 -0.2500835798738208,-0.8172876087667428 l 27.468302659274062 -8.147198353656238" fill="#ffbf11" stroke="none" /><path d="M 79.23777060512086 103.15116336523772 l -57.72610576183637 8.76131297053304 a79.38718944592512,79.38718944592512 0 0,0 -0.19342480405360923,-1.3528126290463836 l 57.86836461690658 -7.766354869506257" fill="#45ffef" stroke="none" /><line stroke="#e1ed5e" stroke-width="0.3" x1="15.007084014347285" x2="10.007500721073583" y1="101.09737516637583" y2="101.16192664675087" /><path d="M 14.007167355692545 101.11028546245083 a86.0,86.0 0 0,1 10.666146001902534,-42.60595125391555" fill="none" id="id22" stroke="none" /><text fill="#e1ed5e" style="font-size:6.75px; font-family:Arial;" text-anchor="middle"><textPath startOffset="22.20632615414155" xlink:href="#id22">October</textPath></text><path d="M 79.00175016825051 100.2711162175752 l -28.60704298974546 0.3693561774688566 a49.60942733790698,49.60942733790698 0 0,0 -0.003675120027418343,-0.8539684654474688 l 28.60916240706238 0.1231217661822876" fill="#ffbe11" stroke="none" /><path d="M 79.21141760316559 97.0276538004421 l -28.898081986353922 -4.131840378867367 a50.19197231100482,50.19197231100482 0 0,0 0.12964850926332086,-0.8542216883211743 l 28.8226775836513 4.628661179580633" fill="#ffc912" stroke="none" /><line stroke="#e1ed5e" stroke-width="0.3" x1="26.266209847984243" x2="21.928928074336255" y1="57.711370442889674" y2="55.22380399835377" /><path d="M 25.398753493254645 57.213857153982495 a86.0,86.0 0 0,1 29.58750427330803,-30.492523968695096" fill="none" id="id23" stroke="none" /><text fill="#e1ed5e" style="font-size:6.75px; font-family:Arial;" text-anchor="middle"><textPath startOffset="21.46611528233685" xlink:href="#id23">November</textPath></text><line stroke="#e1ed5e" stroke-width="0.3" x1="56.762969772571076" x2="54.21961505331055" y1="26.818313649435495" y2="22.513508569990535" /><path d="M 56.25429882871897 25.957352633546506 a86.0,86.0 0 0,1 42.265352541879196,-11.944610805530505" fill="none" id="id24" stroke="none" /><text fill="#e1ed5e" style="font-size:6.75px; font-family:Arial;" text-anchor="middle"><textPath startOffset="22.20632615414155" xlink:href="#id24">December</textPath></text></svg>