<?xml version="1.0" encoding="utf-8" ?>
<svg baseProfile="full" height="200mm" version="1.1" viewBox="0,0,200,200" width="200mm" xmlns="http://www.w3.org/2000/svg" xmlns:ev="http://www.w3.org/2001/xml-events" xmlns:xlink="http://www.w3.org/1999/xlink"><defs /><rect fill="#1a1a1a" height="200" width="200" x="0" y="0" /><text alignment-baseline="middle" fill="#e1ed5e" style="dominant-baseline: central; font-size:9.0px; font-family:Arial;" text-anchor="middle" x="100.0" y="100.0">2025</text><line stroke="#e1ed5e" stroke-width="0.3" x1="100.0" x2="100.0" y1="15.0" y2="10.0" /><path d="M 100.0 14.0 a86.0,86.0 0 0,1 42.46469731375804,11.215312516191453" fill="none" id="id61" stroke="none" /><text fill="#e1ed5e" style="font-size:6.75px; font-family:Arial;" text-anchor="middle"><textPath startOffset="22.20632615414155" xlink:href="#id61">January</textPath></text><path d="M 103.95276090670814 79.375362276772 l 11.6611204220365 -60.84516362810646 a82.95252752251749,82.95252752251749 0 0,0 1.4000553415991894,0.2808379304879756 l -12.706742173102814 60.63542174154128" fill="#4bdfff" stroke="none" /><line stroke="#e1ed5e" stroke-width="0.3" x1="143.23703022742887" x2="145.7803849466894" y1="26.81831364943548" y2="22.513508569990506" /><path d="M 143.74570117128098 25.957352633546492 a86.0,86.0 0 0,1 28.547481713284135,27.462654790039103" fill="none" id="id62" stroke="none" /><text fill="#e1ed5e" style="font-size:6.75px; font-family:Arial;" text-anchor="middle"><textPath startOffset="19.985693538727396" xlink:href="#id62">February</textPath></text><path d="M 111.60114157652 82.49532879139004 l 34.803424729560035 -52.514013625829904 a84.0,84.0 0 0,0 1.1983812223738326,0.8091523508053196 l -35.70221064634041 51.90714936272591" fill="#4dd2ff" stroke="none" /><path d="M 112.77801427241765 83.33499621200491 l 28.88338659382129 -37.669526479961185 a68.46833941010189,68.46833941010189 0 0,0 0.9291070349606483,0.7251827780383747 l -29.52752618394137 37.16676531269959" fill="#32ff47" stroke="none" /><path d="M 114.42810811169701 84.74124197986012 l 30.062097967423465 -31.7928223791706 a64.75515157140308,64.75515157140308 0 0,0 0.8033239069889594,0.7727969620506816 l -30.604905118024845 31.270642330357617" fill="#50ff2b" stroke="none" /><path d="M 115.19652480421416 85.50635884689758 l 34.65631949390754 -33.05336350931179 a68.89139087709293,68.89139087709293 0 0,0 0.8110572885582527,0.8651793660998844 l -35.22014410443626 32.45191472633385" fill="#32ff4e" stroke="none" /><path d="M 115.9244219780498 86.31012108654704 l 26.585546381487337 -22.855015479508214 a56.05913588454192,56.05913588454192 0 0,0 0.6227619723308151,0.7371537460020023 l -26.97501896730527 22.394002783877106" fill="#d6ff1c" stroke="none" /><path d="M 116.82858285166822 87.43820079747576 l 38.113572670641894 -28.450110802524197 a68.56104736437376,68.56104736437376 0 0,0 0.6978123403328937,0.951815247996786 l -38.59764762348841 27.789833110855916" fill="#32ff48" stroke="none" /><line stroke="#e1ed5e" stroke-width="0.3" x1="172.23445277983987" x2="176.4835382374775" y1="55.19839476539836" y2="52.563006222186495" /><path d="M 173.08426987136738 54.67131705675599 a86.0,86.0 0 0,1 12.851231095245387,41.99856678651699" fill="none" id="id63" stroke="none" /><text fill="#e1ed5e" style="font-size:6.75px; font-family:Arial;" text-anchor="middle"><textPath startOffset="22.20632615414155" xlink:href="#id63">March</textPath></text><path d="M 117.84615892207809 88.93136811851018 l 52.04893930394013 -32.28204744185005 a82.2472258123019,82.2472258123019 0 0,0 0.7358549697579534,1.209552090245391 l -52.59691007198431 31.381327578397574" fill="#4ae9ff" stroke="none" /><path d="M 120.37134235888165 94.90015583598534 l 18.53983298571809 -4.6413367066504545 a40.11197042596135,40.11197042596135 0 0,0 0.16191330519188427,0.6712351807106648 l -18.616979091170794 4.321516294280384" fill="#ff0000" stroke="none" /><path d="M 120.83666639777658 97.38593545837742 l 46.401112594251515 -5.821252824655904 a67.76483972423054,67.76483972423054 0 0,0 0.13523811960051796,1.158637620209416 l -46.49444106685562 5.021671466121635" fill="#31ff3b" stroke="none" /><line stroke="#e1ed5e" stroke-width="0.3" x1="184.98032266829074" x2="189.97916517819016" y1="98.17113171792111" y2="98.06355123074" /><path d="M 185.9800911702706 98.14961562048488 a86.0,86.0 0 0,1 -9.607161424134198,41.387399972396054" fill="none" id="id64" stroke="none" /><text fill="#e1ed5e" style="font-size:6.75px; font-family:Arial;" text-anchor="middle"><textPath startOffset="21.466115282336823" xlink:href="#id64">April</textPath></text><path d="M 120.99980553446 99.90962569577887 l 44.16262135525621 -0.19005729224554613 a65.16303031656759,65.16303031656759 0 0,0 -0.004827347756556262,1.1217056109983394 l -44.15934971021015 -0.5701577969564781" fill="#4aff2c" stroke="none" /><path d="M 120.92983693683757 101.71520430193887 l 33.15156226644929 2.716777124781545 a54.26269620238264,54.26269620238264 0 0,0 -0.08430201765224497,0.930265740018693 l -33.09988565251997 -3.2870242533488083" fill="#f4ff19" stroke="none" /><line stroke="#e1ed5e" stroke-width="0.3" x1="174.80103733775053" x2="179.2010983576182" y1="140.37084112569926" y2="142.7455964860345" /><path d="M 175.68104954172406 140.8457921977663 a86.0,86.0 0 0,1 -30.038265399797805,32.042727171017184" fill="none" id="id65" stroke="none" /><text fill="#e1ed5e" style="font-size:6.75px; font-family:Arial;" text-anchor="middle"><textPath startOffset="22.206326154141568" xlink:href="#id65">May</textPath></text><path d="M 111.1453310114006 117.79835938074945 l 32.07114912711937 51.21551233733588 a81.42836511365944,81.42836511365944 0 0,0 -1.194363341453022,0.7336755146101958 l -31.184806585734037 -51.759976318774456" fill="#48f4ff" stroke="none" /><line stroke="#e1ed5e" stroke-width="0.3" x1="143.8653032363475" x2="146.44561519142675" y1="172.8068346515853" y2="177.08958963109032" /><path d="M 144.38136562736335 173.6633856474863 a86.0,86.0 0 0,1 -40.68145358897372,12.25698825130547" fill="none" id="id66" stroke="none" /><text fill="#e1ed5e" style="font-size:6.75px; font-family:Arial;" text-anchor="middle"><textPath startOffset="21.466115282336833" xlink:href="#id66">June</textPath></text><path d="M 105.18746579009965 120.34920634021253 l 9.20437837243454 36.10660818072823 a58.26134371623723,58.26134371623723 0 0,0 -0.9739263494300874,0.23936740117955935 l -8.581498738261242 -36.25969684022182" fill="#b2ff20" stroke="none" /><line stroke="#e1ed5e" stroke-width="0.3" x1="102.19456741930631" x2="102.32365962044197" y1="184.97166512339345" y2="189.96999836594603" /><path d="M 102.22038585953345 185.97133177190398 a86.0,86.0 0 0,1 -42.740103519485714,-10.115201625700543" fill="none" id="id67" stroke="none" /><text fill="#e1ed5e" style="font-size:6.75px; font-family:Arial;" text-anchor="middle"><textPath startOffset="22.20632615414155" xlink:href="#id67">July</textPath></text><line stroke="#e1ed5e" stroke-width="0.3" x1="58.666819895761336" x2="56.23545636021788" y1="174.27360380694188" y2="178.64263932499728" /><path d="M 58.180547188652646 175.14741091055294 a86.0,86.0 0 0,1 -31.652253787137756,-30.449443065178592" fill="none" id="id68" stroke="none" /><text fill="#e1ed5e" style="font-size:6.75px; font-family:Arial;" text-anchor="middle"><textPath startOffset="22.20632615414155" xlink:href="#id68">August</textPath></text><line stroke="#e1ed5e" stroke-width="0.3" x1="26.63291911575756" x2="22.317208475507996" y1="142.92168965132927" y2="145.44649492493687" /><path d="M 25.769776987707644 143.4266507060508 a86.0,86.0 0 0,1 -11.730757126820373,-40.83630448921669" fill="none" id="id69" stroke="none" /><text fill="#e1ed5e" style="font-size:6.75px; font-family:Arial;" text-anchor="middle"><textPath startOffset="21.46611528233685" xlink:href="#id69">September</textPath></text><path d="M 80.32549172779594 107.34259656027581 l -20.293238933807608 7.573509046868721 a42.66041517856034,42.66041517856034 0 0,0 -0.25083458523793717,-0.6901890494071217 l 20.42059778005077 -7.223072200455482" fill="#ff3404" stroke="none" /><line stroke="#e1ed5e" stroke-width="0.3" x1="15.007084014347285" x2="10.007500721073583" y1="101.09737516637583" y2="101.16192664675087" /><path d="M 14.007167355692545 101.11028546245083 a86.0,86.0 0 0,1 10.666146001902534,-42.60595125391555" fill="none" id="id70" stroke="none" /><text fill="#e1ed5e" style="font-size:6.75px; font-family:Arial;" text-anchor="middle"><textPath startOffset="22.20632615414155" xlink:href="#id70">October</textPath></text><line stroke="#e1ed5e" stroke-width="0.3" x1="26.266209847984243" x2="21.928928074336255" y1="57.711370442889674" y2="55.22380399835377" /><path d="M 25.398753493254645 57.213857153982495 a86.0,86.0 0 0,1 29.58750427330803,-30.492523968695096" fill="none" id="id71" stroke="none" /><text fill="#e1ed5e" style="font-size:6.75px; font-family:Arial;" text-anchor="middle"><textPath startOffset="21.46611528233685" xlink:href="#id71">November</textPath></text><line stroke="#e1ed5e" stroke-width="0.3" x1="56.762969772571076" x2="54.21961505331055" y1="26.818313649435495" y2="22.513508569990535" /><path d="M 56.25429882871897 25.957352633546506 a86.0,86.0 0 0,1 42.265352541879196,-11.944610805530505" fill="none" id="id72" stroke="none" /><text fill="#e1ed5e" style="font-size:6.75px; font-family:Arial;" text-anchor="middle"><textPath startOffset="22.20632615414155" xlink:href="#id72">December</textPath></text><path d="M 96.75951476605007 79.25152402106235 l -4.908963715918388 -31.43156298757671 a52.81259305064907,52.81259305064907 0 0,0 0.8994010237576421,-0.1325483314062517 l 4.367193711732097 31.511405803143933" fill="#fff116" stroke="none" /></svg>