<?xml version="1.0" encoding="utf-8" ?>
<svg baseProfile="full" height="200mm" version="1.1" viewBox="0,0,200,200" width="200mm" xmlns="http://www.w3.org/2000/svg" xmlns:ev="http://www.w3.org/2001/xml-events" xmlns:xlink="http://www.w3.org/1999/xlink"><defs /><rect fill="#1a1a1a" height="200" width="200" x="0" y="0" /><text alignment-baseline="middle" fill="#e1ed5e" style="dominant-baseline: central; font-size:9.0px; font-family:Arial;" text-anchor="middle" x="100.0" y="100.0">2020</text><line stroke="#e1ed5e" stroke-width="0.3" x1="100.0" x2="100.0" y1="15.0" y2="10.0" /><path d="M 100.0 14.0 a86.0,86.0 0 0,1 42.35913384403234,11.155469271406648" fill="none" id="id1" stroke="none" /><text fill="#e1ed5e" style="font-size:6.75px; font-family:Arial;" text-anchor="middle"><textPath startOffset="22.145653131862478" xlink:href="#id1">January</textPath></text><line stroke="#e1ed5e" stroke-width="0.3" x1="143.13028292997686" x2="145.6673583964461" y1="26.7553504044142" y2="22.446841604673864" /><path d="M 143.63769802327073 25.89364864446614 a86.0,86.0 0 0,1 29.32050498858742,28.57503671076993" fill="none" id="id2" stroke="none" /><text fill="#e1ed5e" style="font-size:6.75px; font-family:Arial;" text-anchor="middle"><textPath startOffset="20.669276256404974" xlink:href="#id2">February</textPath></text><line stroke="#e1ed5e" stroke-width="0.3" x1="172.87174338648825" x2="177.1583165268699" y1="56.24261187166439" y2="53.66864786411523" /><path d="M 173.72905801456457 55.72781907015455 a86.0,86.0 0 0,1 12.242430191666344,42.057860355516425" fill="none" id="id3" stroke="none" /><text fill="#e1ed5e" style="font-size:6.75px; font-family:Arial;" text-anchor="middle"><textPath startOffset="22.145653131862474" xlink:href="#id3">March</textPath></text><line stroke="#e1ed5e" stroke-width="0.3" x1="184.99686870605535" x2="189.99668451229388" y1="99.2704041080226" y2="99.22748670261217" /><path d="M 185.99683186730306 99.26182062694052 a86.0,86.0 0 0,1 -10.086455211305974,41.156179273409016" fill="none" id="id4" stroke="none" /><text fill="#e1ed5e" style="font-size:6.75px; font-family:Arial;" text-anchor="middle"><textPath startOffset="21.40746469413373" xlink:href="#id4">April</textPath></text><line stroke="#e1ed5e" stroke-width="0.3" x1="174.33088141563837" x2="178.70328620479359" y1="141.23008692659167" y2="143.65538615756765" /><path d="M 175.20536237346943 141.71514677278685 a86.0,86.0 0 0,1 -30.301960400862466,31.631185727798858" fill="none" id="id5" stroke="none" /><text fill="#e1ed5e" style="font-size:6.75px; font-family:Arial;" text-anchor="middle"><textPath startOffset="22.145653131862474" xlink:href="#id5">May</textPath></text><line stroke="#e1ed5e" stroke-width="0.3" x1="143.1302829299769" x2="145.66735839644613" y1="173.24464959558577" y2="177.55315839532614" /><path d="M 143.63769802327073 174.10635135553383 a86.0,86.0 0 0,1 -40.68552437913181,11.842963189579606" fill="none" id="id6" stroke="none" /><text fill="#e1ed5e" style="font-size:6.75px; font-family:Arial;" text-anchor="middle"><textPath startOffset="21.407464694133747" xlink:href="#id6">June</textPath></text><line stroke="#e1ed5e" stroke-width="0.3" x1="101.45913802915013" x2="101.54496967792366" y1="184.9874750549273" y2="189.98673829345242" /><path d="M 101.47630435890484 185.9873277026323 a86.0,86.0 0 0,1 -42.54439059252881,-10.42667462771756" fill="none" id="id7" stroke="none" /><text fill="#e1ed5e" style="font-size:6.75px; font-family:Arial;" text-anchor="middle"><textPath startOffset="22.145653131862474" xlink:href="#id7">July</textPath></text><line stroke="#e1ed5e" stroke-width="0.3" x1="58.13341422392154" x2="55.670673884152215" y1="173.97424548756322" y2="178.32567169271397" /><path d="M 57.64086615596767 174.84453072859336 a86.0,86.0 0 0,1 -31.369924170532244,-30.572349798747897" fill="none" id="id8" stroke="none" /><text fill="#e1ed5e" style="font-size:6.75px; font-family:Arial;" text-anchor="middle"><textPath startOffset="22.145653131862474" xlink:href="#id8">August</textPath></text><line stroke="#e1ed5e" stroke-width="0.3" x1="26.387840678322732" x2="22.057713659400548" y1="142.50000000000003" y2="145.00000000000006" /><path d="M 25.521815274538298 143.00000000000003 a86.0,86.0 0 0,1 -11.493303480769221,-40.785679425670985" fill="none" id="id9" stroke="none" /><text fill="#e1ed5e" style="font-size:6.75px; font-family:Arial;" text-anchor="middle"><textPath startOffset="21.40746469413373" xlink:href="#id9">September</textPath></text><path d="M 80.5471966667186 107.91128576633889 l -16.328339373270556 6.64059347429366 a38.62702891526332,38.62702891526332 0 0,0 -0.2445299241008062,-0.6163751475031874 l 16.439927972337486 -6.359317309576907" fill="#ff7e0b" stroke="none" /><path d="M 80.41425534168474 107.57618678355246 l -13.28517206342853 5.138989952135191 a35.24447312058429,35.24447312058429 0 0,0 -0.2134293117173903,-0.5661466062579966 l 13.371432058960355 -4.910175065683049" fill="#ff4806" stroke="none" /><path d="M 80.28708602549918 107.23885506374661 l -21.826859887129313 8.015125284065704 a44.25196864464693,44.25196864464693 0 0,0 -0.25573387571119555,-0.7153331650564364 l 21.96123393288445 -7.639257162628346" fill="#ffd413" stroke="none" /><path d="M 80.16572619554312 106.89939002012753 l -25.470134753586432 8.859835014010459 a47.96709922927079,47.96709922927079 0 0,0 -0.26385234504122096,-0.7800325746251289 l 25.61847252020002 -8.42130076491117" fill="#f5ff19" stroke="none" /><path d="M 80.05021161711548 106.5578916946017 l -27.907922065998438 9.173888304861315 a50.377071683064564,50.377071683064564 0 0,0 -0.26300497963249475,-0.8238593527577568 l 28.06129176140819 -8.693459918412167" fill="#d3ff1c" stroke="none" /><path d="M 79.94057633289273 106.21446072829308 l -27.791407684721857 8.609849141572699 a50.09453287714132,50.09453287714132 0 0,0 -0.24742806179601234,-0.8236075461031 l 27.935112066521498 -8.131503991878876" fill="#d7ff1c" stroke="none" /><path d="M 79.83685265289637 105.86919833188381 l -21.293348580234817 6.198183439119033 a43.177109182766756,43.177109182766756 0 0,0 -0.20104394494055455,-0.7134340359616794 l 21.39661101724995 -5.831741479254358" fill="#ffc412" stroke="none" /><path d="M 79.64726062577567 105.17358676015961 l -49.1048449006351 12.482259550739164 a71.66648395347212,71.66648395347212 0 0,0 -0.2928513454251334,-1.1949334251012076 l 49.31188377257653 -11.637470301029856" fill="#3bff9c" stroke="none" /><path d="M 79.56144815229197 104.8234425847677 l -50.75035607080914 11.976945846655752 a73.14447116548061,73.14447116548061 0 0,0 -0.2779111588625624,-1.2245278439985656 l 50.94847809122937 -11.103983668718161" fill="#3dffaf" stroke="none" /><path d="M 79.48165901384964 104.47187691870673 l -49.25432507512878 10.734750904014067 a71.41054865380549,71.41054865380549 0 0,0 -0.2507608251914071,-1.1999813249814684 l 49.431343611144555 -9.88765312774719" fill="#3bff99" stroke="none" /><path d="M 79.407916724674 104.11899336999214 l -48.68356237034779 9.738075936752773 a70.64795431855684,70.64795431855684 0 0,0 -0.22766709578178793,-1.1912504480878356 l 48.84355575841174 -8.900922923631624" fill="#3aff8f" stroke="none" /><path d="M 79.34024301695615 103.76489593502545 l -47.367294750703955 8.6318989911857 a69.14738094843892,69.14738094843892 0 0,0 -0.2027835274116005,-1.1696014984847325 l 47.50849309560779 -7.817504459780374" fill="#37ff7c" stroke="none" /><path d="M 79.2786578344484 103.40968896794605 l -48.75831028472439 8.02316140263829 a70.41400551173973,70.41400551173973 0 0,0 -0.1860220932551965,-1.1943952819440815 l 48.88885387011785 -7.184977938762759" fill="#39ff8c" stroke="none" /><path d="M 79.22317932658666 103.0534771498775 l -48.752234960757455 7.164899663817307 a70.27591907678101,70.27591907678101 0 0,0 -0.16516676002672803,-1.1950643978239592 l 48.86804623733939 -6.326946957793262" fill="#39ff8b" stroke="none" /><path d="M 79.17382384314188 102.69636545807758 l -49.16859975932461 6.365859628505385 a70.578981142239,70.578981142239 0 0,0 -0.1452512532802988,-1.2028887441481668 l 49.270633098864565 -5.520877207433819" fill="#3aff8f" stroke="none" /><path d="M 79.13060592940153 102.33845913500099 l -49.56706067308682 5.554092535414175 a70.87726383495203,70.87726383495203 0 0,0 -0.1251071713241622,-1.2102983944844445 l 49.65510023689265 -4.702389618646799" fill="#3aff92" stroke="none" /><path d="M 79.0935383218832 101.97986365728391 l -49.42921502024807 4.680998053778583 a70.65036797746212,70.65036797746212 0 0,0 -0.10397842520261409,-1.208386912984234 l 49.502287068148426 -3.831790093418687" fill="#3aff8f" stroke="none" /><path d="M 79.06263194458094 101.62068470465958 l -56.56024296187817 4.378120517226138 a77.72943700734254,77.72943700734254 0 0,0 -0.09155801773481784,-1.3312334836414992 l 56.627064940778055 -3.406543609430296" fill="#44ffe6" stroke="none" /><path d="M 79.03789590574601 101.26102812881392 l -49.21184295012983 2.960462268093472 a70.30080956119329,70.30080956119329 0 0,0 -0.06212720406532982,-1.2052511614514474 l 49.25541174365173 -2.1152393132652936" fill="#39ff8b" stroke="none" /><path d="M 79.01933749520258 100.90099992219065 l -49.54598301069823 2.127717693723483 a70.59164864249405,70.59164864249405 0 0,0 -0.04159970225520878,-1.2111299419038741 l 49.57520739995029 -1.2768814872554892" fill="#3aff8f" stroke="none" /><path d="M 79.00696218219943 100.54070618675478 l -62.97280089264053 1.6219559710912934 a83.99368534572578,83.99368534572578 0 0,0 -0.024752412716292707,-1.4417039486662795 l 62.99136473695549 -0.5407051064559615" fill="#4dd2ff" stroke="none" /><line stroke="#e1ed5e" stroke-width="0.3" x1="15.003131293944662" x2="10.003315487706104" y1="100.72959589197737" y2="100.7725132973878" /><path d="M 14.003168132696942 100.73817937305945 a86.0,86.0 0 0,1 10.791469493833615,-42.45332614584628" fill="none" id="id10" stroke="none" /><text fill="#e1ed5e" style="font-size:6.75px; font-family:Arial;" text-anchor="middle"><textPath startOffset="22.145653131862435" xlink:href="#id10">October</textPath></text><path d="M 79.00077361379809 100.18025310272382 l -62.99767915860572 0.5407593081714642 a84.0,84.0 0 0,0 0.0,-1.4420248217905405 l 62.99767915860572 0.540759308171441" fill="#4dd2ff" stroke="none" /><path d="M 79.01933749520258 99.09900007780938 l -49.29413473883919 -2.1169022452933746 a70.33956824666143,70.33956824666143 0 0,0 0.062161456427101504,-1.2059156481191375 l 49.25053169295552 2.9627896867892245" fill="#39ff8b" stroke="none" /><path d="M 79.03789590574601 98.7389718711861 l -49.1148827726341 -2.9546293845886717 a70.20367409624879,70.20367409624879 0 0,0 0.0826933718476199,-1.2023434779639313 l 49.05692543962141 3.797316286706928" fill="#39ff8a" stroke="none" /><path d="M 79.06263194458094 98.37931529534042 l -49.07963773716153 -3.7990743621791423 a70.22645433524923,70.22645433524923 0 0,0 0.10335453782309169,-1.2011363959359243 l 49.0071895766407 4.641031805490747" fill="#39ff8a" stroke="none" /><path d="M 79.0935383218832 98.0201363427161 l -49.10527993223748 -4.65032106414992 a70.32498356029205,70.32498356029205 0 0,0 0.12413232806411219,-1.2008676702499637 l 49.018215211691704 5.492593256682796" fill="#39ff8b" stroke="none" /><path d="M 79.13060592940154 97.66154086499901 l -49.0728073597892 -5.498710420745446 a70.37991735981538,70.37991735981538 0 0,0 0.14484158083372253,-1.199496068603997 l 48.97118369269582 6.340300166272879" fill="#39ff8c" stroke="none" /><path d="M 79.17382384314186 97.30363454192245 l -49.082317805383944 -6.3546887021428065 a70.49197904357686,70.49197904357686 0 0,0 0.16567455736551864,-1.198738566408436 l 48.965998731463216 7.196315576751309" fill="#39ff8d" stroke="none" /><path d="M 79.22317932658666 96.9465228501225 l -48.67130152412719 -7.153005235728597 a70.19411627374626,70.19411627374626 0 0,0 0.18544118245430455,-1.1906654178850642 l 48.54133884953462 7.9874588355451115" fill="#39ff8a" stroke="none" /><path d="M 79.2786578344484 96.59031103205396 l -48.7562677724113 -8.02282530801442 a70.41193553199459,70.41193553199459 0 0,0 0.20649199526013895,-1.1909909555481215 l 48.611360959658924 8.858609296483134" fill="#39ff8c" stroke="none" /><path d="M 79.34024301695615 96.23510406497455 l -48.49417602143584 -8.837254297103211 a70.29282068932221,70.29282068932221 0 0,0 0.22652265723770387,-1.1852622620315312 l 48.33532707191598 9.668419124168057" fill="#39ff8b" stroke="none" /><path d="M 79.407916724674 95.88100663000787 l -48.33351494284067 -9.668056647601361 a70.2909726630651,70.2909726630651 0 0,0 0.24682939202648926,-1.1811679940925102 l 48.160427839989815 10.49634109297928" fill="#39ff8b" stroke="none" /><path d="M 79.48165901384962 95.52812308129327 l -48.190095592146655 -10.502807041478217 a70.3213368526316,70.3213368526316 0 0,0 0.26718470864690125,-1.1772651251854667 l 48.00270002194209 11.32850650060269" fill="#39ff8b" stroke="none" /><path d="M 79.64726062577567 94.8264132398404 l -47.7004111514113 -12.125257983681909 a70.21738620837687,70.21738620837687 0 0,0 0.3069854611583895,-1.1656737982964636 l 47.48523620944818 12.942312286351157" fill="#39ff8a" stroke="none" /><path d="M 79.73907114497095 94.47779374421319 l -48.12481303443492 -13.116631794073104 a70.88029329525446,70.88029329525446 0 0,0 0.3300372362193273,-1.1711857202325564 l 47.892557306141015 13.940825438208673" fill="#3aff92" stroke="none" /><path d="M 79.83685265289637 94.1308016681162 l -47.22513371499822 -13.746548157962646 a70.18516890952645,70.18516890952645 0 0,0 0.3466601904982344,-1.1539190290520454 l 46.98219720449635 14.555204790605416" fill="#39ff89" stroke="none" /><path d="M 79.94057633289273 93.78553927170692 l -46.96193502124166 -14.548927514438589 a70.16395664264331,70.16395664264331 0 0,0 0.3663069204146937,-1.147451210943728 l 46.70526338504971 15.35294775907371" fill="#39ff89" stroke="none" /><path d="M 80.05021161711548 93.44210830539832 l -46.723759009459805 -15.359027638187088 a70.18342592748772,70.18342592748772 0 0,0 0.3860575646962252,-1.1413105920906554 l 46.45321602319121 16.158839904751904" fill="#39ff89" stroke="none" /><path d="M 80.16572619554312 93.10060997987247 l -46.4720214054223 -16.165381392873375 a70.20333656453681,70.20333656453681 0 0,0 0.4057078565628576,-1.1348370813850162 l 46.1876733788155 16.960753430639315" fill="#39ff8a" stroke="none" /><path d="M 80.28708602549916 92.7611449362534 l -46.23872715862519 -16.979501085753967 a70.25772372299498,70.25772372299498 0 0,0 0.4254584134575025,-1.1285789891963105 l 45.94043806135325 17.770748355144423" fill="#39ff8a" stroke="none" /><path d="M 80.41425534168474 92.42381321644754 l -45.90130095391528 -17.75560928122659 a70.21576058753419,70.21576058753419 0 0,0 0.4445036309889372,-1.1204395213551102 l 45.58973864796021 18.540949819795284" fill="#39ff8a" stroke="none" /><path d="M 80.5471966667186 92.08871423366112 l -45.53859155568291 -18.520148742634817 a70.16054546406735,70.16054546406735 0 0,0 0.46330735186140676,-1.1117689833480864 l 45.21395835928503 19.299150235424165" fill="#39ff89" stroke="none" /><path d="M 80.83023694016515 91.42560881287825 l -44.90481314896173 -20.085351755366087 a70.1921091139621,70.1921091139621 0 0,0 0.5014241338897131,-1.0957022251974646 l 44.55340455021697 20.85324296277822" fill="#39ff8a" stroke="none" /><path d="M 80.9802524753101 91.09779779509293 l -44.598874658972676 -20.87452526959628 a70.24231337049234,70.24231337049234 0 0,0 0.520531472825186,-1.0877105778147846 l 44.233963928187585 21.63704834947615" fill="#39ff8a" stroke="none" /><path d="M 81.1358732173502 90.77261029715801 l -44.21348283768484 -21.627030021790727 a70.2195133275583,70.2195133275583 0 0,0 0.5389517739221403,-1.0782645773248154 l 43.83571115055096 22.382826455279314" fill="#39ff8a" stroke="none" /><path d="M 81.29705330413844 90.45014215332179 l -43.83350410404216 -22.381699521606095 a70.21703521662539,70.21703521662539 0 0,0 0.5573625329101873,-1.0688161478599467 l 43.442833502157036 23.130861912570527" fill="#39ff8a" stroke="none" /><path d="M 81.46374523516351 90.13048839642627 l -43.424741598950504 -23.12122899314355 a70.1965386291455,70.1965386291455 0 0,0 0.5754600269482496,-1.0587816341711422 l 43.02143622238691 23.86326546078931" fill="#39ff8a" stroke="none" /><path d="M 81.63589988554816 89.8137432299009 l -42.95876532523152 -23.82850297057968 a70.12487223481847,70.12487223481847 0 0,0 0.592944647192523,-1.0476763767304536 l 42.54338731301762 24.56243611740924" fill="#39ff89" stroke="none" /><line stroke="#e1ed5e" stroke-width="0.3" x1="26.387840678322718" x2="22.05771365940052" y1="57.49999999999999" y2="54.99999999999999" /><path d="M 25.521815274538284 56.99999999999999 a86.0,86.0 0 0,1 29.574782752854787,-30.34633250058573" fill="none" id="id11" stroke="none" /><text fill="#e1ed5e" style="font-size:6.75px; font-family:Arial;" text-anchor="middle"><textPath startOffset="21.40746469413373" xlink:href="#id11">November</textPath></text><path d="M 81.81346652052679 89.5 l -42.72250160861923 -24.66584780419054 a70.33169560838107,70.33169560838107 0 0,0 0.6126436256153811,-1.0404028129845542 l 42.29278427287407 25.395601785468667" fill="#39ff8b" stroke="none" /><path d="M 82.18462484594161 88.88188828441811 l -41.776729411528976 -26.071768946342146 a70.24461652115448,70.24461652115448 0 0,0 0.6471947883508073,-1.0174977034845556 l 41.32301693155228 26.785080324505376" fill="#39ff8a" stroke="none" /><path d="M 82.37810715431573 88.57770195909679 l -41.30363687157844 -26.772518403773578 a70.22152131435607,70.22152131435607 0 0,0 0.6643476260461829,-1.005906980238134 l 40.83796480661153 27.47760526235077" fill="#39ff8a" stroke="none" /><path d="M 82.576782715395 88.27688183743585 l -40.83867725976962 -27.478084632631308 a70.2223800258142,70.2223800258142 0 0,0 0.6815257978341084,-0.9943665066851878 l 40.3609617251202 28.175085874386532" fill="#39ff8a" stroke="none" /><path d="M 82.78059297857968 87.97951657250589 l -40.310282656767725 -28.13970794874171 a70.16057415560752,70.16057415560752 0 0,0 0.6978802199797451,-0.981655927335855 l 39.82128733825801 28.827541102787084" fill="#39ff89" stroke="none" /><path d="M 82.98947788004972 87.6856937992154 l -8.126857604656616 -5.883218180384042 a31.032849579474735,31.032849579474735 0 0,0 0.31608875483851356,-0.42883510254152263 l 8.024666830234283 6.021859592194428" fill="#ff0200" stroke="none" /><path d="M 83.2033758604659 87.39550010848427 l -7.926177742202937 -5.947951544416858 a30.90971347596509,30.90971347596509 0 0,0 0.3221204607028523,-0.4216660232657339 l 7.822905304145778 6.083138480923476" fill="#ff0000" stroke="none" /><path d="M 83.42222388311158 87.10902102172516 l -7.9449510891920365 -6.178042021562778 a31.064315725862798,31.064315725862798 0 0,0 0.33095858271546436,-0.41815535769709017 l 7.83772607583501 6.31351732317455" fill="#ff0300" stroke="none" /><path d="M 83.64595745247003 86.82634096563983 l -8.00314502710178 -6.446767120921897 a31.276727914867823,31.276727914867823 0 0,0 0.3403997927976655,-0.41523239898105735 l 7.891298415065485 6.583201801601447" fill="#ff0601" stroke="none" /><path d="M 83.8745106332314 86.54754324733833 l -7.765675829415992 -6.478402972730557 a31.11313137285677,31.11313137285677 0 0,0 0.34566012836213517,-0.40718676206056514 l 7.653321137546742 6.610756517240679" fill="#ff0300" stroke="none" /><path d="M 84.34580500576568 86.00192230759919 l -7.602236613051134 -6.797966857107555 a31.19835059757939,31.19835059757939 0 0,0 0.36041864690068137,-0.396163228997745 l 7.484420265308587 6.92746766166296" fill="#ff0500" stroke="none" /><path d="M 84.58840730492382 85.73525988315684 l -21.795875497962687 -20.1739369673869 a50.69929159907337,50.69929159907337 0 0,0 0.5966682929721255,-0.6336410502352527 l 21.44635137125429 20.545119477566665" fill="#cfff1d" stroke="none" /><path d="M 84.83555147118756 85.47280134310135 l -35.51348411940735 -34.0211144388808 a70.17970904715503,70.17970904715503 0 0,0 0.8408638613171736,-0.8628003977744969 l 34.924233456939376 34.62573752872303" fill="#39ff89" stroke="none" /><path d="M 85.08716467003674 85.21462403516908 l -34.93664747994074 -34.63804544960126 a70.19719026231368,70.19719026231368 0 0,0 0.855764185301213,-0.8484500054455393 l 34.33689137450955 35.23267546527547" fill="#39ff8a" stroke="none" /><path d="M 85.34317274990677 84.96080404539775 l -34.368678319551236 -35.265291671165265 a70.2427339420259,70.2427339420259 0 0,0 0.870767443483469,-0.834175513300694 l 33.75823839020247 35.85007931477153" fill="#39ff8a" stroke="none" /><path d="M 85.86807049272753 84.46653392183569 l -33.12210757037885 -36.40699835907191 a70.2193411112056,70.2193411112056 0 0,0 0.89859013095233,-0.8035248360792848 l 32.49225241260313 36.9702187250346" fill="#39ff8a" stroke="none" /><path d="M 86.13680546590413 84.22622945171909 l -32.440803965481194 -36.911679836471016 a70.14140688133503,70.14140688133503 0 0,0 0.9112388150253112,-0.7871063851793676 l 31.802385670693038 37.463130354115094" fill="#39ff89" stroke="none" /><path d="M 86.40962598614128 83.9905735841838 l -31.889446852390623 -37.56568820724262 a70.27593480630493,70.27593480630493 0 0,0 0.9263896402452207,-0.7728271860818585 l 31.239882877983494 38.10757757723636" fill="#39ff8b" stroke="none" /><path d="M 86.96720088162412 83.53348406188908 l -30.563485804195285 -38.61596588329258 a70.24753278696166,70.24753278696166 0 0,0 0.9519880592894707,-0.7402716729517927 l 29.896087800270568 39.13493860786517" fill="#39ff8a" stroke="none" /><path d="M 87.54013794807813 83.09580414077388 l -32.07191421060088 -43.5117112161503 a75.05438644633571,75.05438644633571 0 0,0 1.0436812427171769,-0.7555447333248655 l 31.320251957509733 44.05585672084825" fill="#40ffc7" stroke="none" /><path d="M 87.83215693770416 82.88440491214696 l -28.55358168958611 -40.164188509403715 a70.27949944878483,70.27949944878483 0 0,0 0.989284048900545,-0.69059709780369 l 27.859902549511798 40.64843042301253" fill="#39ff8b" stroke="none" /><path d="M 88.12776184653039 82.6780497279521 l -27.807054816179726 -40.57132400070739 a70.18602066360319,70.18602066360319 0 0,0 0.9996618716278629,-0.6726171207230757 l 27.106496656454873 41.04269079548758" fill="#39ff89" stroke="none" /><path d="M 88.72937992617638 82.28071324371311 l -26.377191756421382 -41.469326576193794 a70.1473426711764,70.1473426711764 0 0,0 1.0215987456631803,-0.6375531744103715 l 25.661428881968504 41.9160155474457" fill="#39ff89" stroke="none" /><line stroke="#e1ed5e" stroke-width="0.3" x1="56.869717070023135" x2="54.33264160355391" y1="26.7553504044142" y2="22.446841604673864" /><path d="M 56.362301976729285 25.89364864446614 a86.0,86.0 0 0,1 42.16139366436587,-11.88097634709845" fill="none" id="id12" stroke="none" /><text fill="#e1ed5e" style="font-size:6.75px; font-family:Arial;" text-anchor="middle"><textPath startOffset="22.145653131862474" xlink:href="#id12">December</textPath></text><path d="M 90.61103034731259 81.2157712731953 l -21.977497991468372 -43.969718125190504 a70.15634780955256,70.15634780955256 0 0,0 1.0818768660633433,-0.5292001887327021 l 21.219460876142975 44.340512064020416" fill="#39ff89" stroke="none" /><path d="M 90.93487009805054 81.0573650232925 l -21.280143453452162 -44.46731531161278 a70.29692319427141,70.29692319427141 0 0,0 1.0929875620493503,-0.5115733672164127 l 20.51366717753129 44.82606491039974" fill="#39ff8b" stroke="none" /><path d="M 91.5904679813234 80.7573450057729 l -19.748583146427887 -45.188623013450695 a70.31549640978119,70.31549640978119 0 0,0 1.1101977276887103,-0.4738773935127243 l 18.969950343568748 45.520975056622824" fill="#39ff8b" stroke="none" /><path d="M 92.93061703081487 80.22567764915836 l -16.61404128159013 -46.47243037820918 a70.35294472434123,70.35294472434123 0 0,0 1.1407034094416693,-0.39679585936031514 l 15.813832100103456 46.75078467013808" fill="#39ff8c" stroke="none" /><path d="M 93.27111125876988 80.10723608172694 l -15.800015247709435 -46.70993760112894 a70.30982409752858,70.30982409752858 0 0,0 1.1466436225423366,-0.3769245339659627 l 14.995848887519337 46.97428305649693" fill="#39ff8b" stroke="none" /><path d="M 93.61358852112211 79.99465700312896 l -15.003129042204744 -46.9970880373588 a70.3337629321776,70.3337629321776 0 0,0 1.153337623384879,-0.357306943904925 l 14.194150785948247 47.24771156907037" fill="#39ff8b" stroke="none" /><path d="M 93.95794788825049 79.88797359093562 l -14.159992791351266 -47.13401071434267 a70.2150420285393,70.2150420285393 0 0,0 1.1573444656372536,-0.3368861066280414 l 13.348788313332388 47.370140515273235" fill="#39ff8a" stroke="none" /><path d="M 94.30408787586887 79.78721728523814 l -13.380542105176062 -47.482823520368555 a70.33211364309109,70.33211364309109 0 0,0 1.1648960588877615,-0.3174976009125354 l 12.563464645353623 47.705521615425226" fill="#39ff8b" stroke="none" /><path d="M 94.6519064749342 79.69241777938228 l -12.546376782557815 -47.64063621709139 a70.2650158788074,70.2650158788074 0 0,0 1.1690583152138125,-0.29717005216037345 l 11.726713174118624 47.84899150108703" fill="#39ff8a" stroke="none" /><path d="M 95.00130118170881 79.60360301121753 l -11.738299372190026 -47.896267143018136 a70.31369057763285,70.31369057763285 0 0,0 1.174800627408224,-0.2772497492520758 l 10.914366591041896 48.090713035916444" fill="#39ff8b" stroke="none" /><path d="M 96.05791012581881 79.37332000966035 l -9.22849129101018 -48.28736602380019 a70.16131374388507,70.16131374388507 0 0,0 1.1849419539706754,-0.2159358965067605 l 8.398214603488466 48.438670094238304" fill="#39ff89" stroke="none" /><path d="M 96.41257539226777 79.30868818359171 l -8.430145790349465 -48.622840694669854 a70.34823193657286,70.34823193657286 0 0,0 1.1916404152513933,-0.1960839768572584 l 7.594227872045 48.76039067002278" fill="#39ff8c" stroke="none" /><path d="M 97.12497278360702 79.19773525538626 l -6.75108201321218 -48.84746639986013 a70.31178441340955,70.31178441340955 0 0,0 1.1970486814393848,-0.15498191756184265 l 5.9115555098820005 48.956159913622365" fill="#39ff8b" stroke="none" /><path d="M 98.9189461498227 79.02784411241856 l -2.536534126124252 -49.208084406270515 a70.2734165276535,70.2734165276535 0 0,0 1.2052702070394932,-0.0517594886487965 l 1.6914381584839386 49.24437646334514" fill="#39ff8b" stroke="none" /><path d="M 99.63950707515114 79.00309439819443 l -0.8476008848762536 -49.36850223958002 a70.3757778737658,70.3757778737658 0 0,0 1.2080938097250937,-0.010370032380215869 l 1.2093577665703598e-14 49.3757778737658" fill="#39ff8c" stroke="none" /></svg>