<?xml version="1.0" encoding="utf-8" ?>
<svg baseProfile="full" height="200mm" version="1.1" viewBox="0,0,200,200" width="200mm" xmlns="http://www.w3.org/2000/svg" xmlns:ev="http://www.w3.org/2001/xml-events" xmlns:xlink="http://www.w3.org/1999/xlink"><defs /><rect fill="#1a1a1a" height="200" width="200" x="0" y="0" /><text alignment-baseline="middle" fill="#e1ed5e" style="dominant-baseline: central; font-size:9.0px; font-family:Arial;" text-anchor="middle" x="100.0" y="100.0">2024</text><line stroke="#e1ed5e" stroke-width="0.3" x1="100.0" x2="100.0" y1="15.0" y2="10.0" /><path d="M 100.0 14.0 a86.0,86.0 0 0,1 42.35913384403234,11.155469271406648" fill="none" id="id49" stroke="none" /><text fill="#e1ed5e" style="font-size:6.75px; font-family:Arial;" text-anchor="middle"><textPath startOffset="22.145653131862478" xlink:href="#id49">January</textPath></text><path d="M 102.87502721639298 79.19773525538626 l 4.0255648250688525 -29.126981741323675 a50.403847325141555,50.403847325141555 0 0,0 0.856085091507685,0.1258150275424246 l -4.524975022184219 29.053585640482368" fill="#ffb310" stroke="none" /><path d="M 103.58742460773223 79.30868818359171 l 3.5087694643804213 -20.237649851346028 a41.539569972612725,41.539569972612725 0 0,0 0.7015544120243496,0.1278465838778933 l -3.8556586099558245 20.17443509353677" fill="#ff0000" stroke="none" /><path d="M 104.9986988182912 79.60360301121754 l 4.965686464869248 -20.261695321327675 a41.86131202397628,41.86131202397628 0 0,0 0.6964819447532126,0.17704298678480834 l -5.3127737028478546 20.173467102707598" fill="#ff0701" stroke="none" /><line stroke="#e1ed5e" stroke-width="0.3" x1="143.13028292997686" x2="145.6673583964461" y1="26.7553504044142" y2="22.446841604673864" /><path d="M 143.63769802327073 25.89364864446614 a86.0,86.0 0 0,1 29.32050498858742,28.57503671076993" fill="none" id="id50" stroke="none" /><text fill="#e1ed5e" style="font-size:6.75px; font-family:Arial;" text-anchor="middle"><textPath startOffset="20.669276256404974" xlink:href="#id50">February</textPath></text><line stroke="#e1ed5e" stroke-width="0.3" x1="172.87174338648825" x2="177.1583165268699" y1="56.24261187166439" y2="53.66864786411523" /><path d="M 173.72905801456457 55.72781907015455 a86.0,86.0 0 0,1 12.242430191666344,42.057860355516425" fill="none" id="id51" stroke="none" /><text fill="#e1ed5e" style="font-size:6.75px; font-family:Arial;" text-anchor="middle"><textPath startOffset="22.145653131862474" xlink:href="#id51">March</textPath></text><path d="M 118.70294669586156 90.45014215332178 l 18.300231217072522 -9.344228453747151 a41.54782392357238,41.54782392357238 0 0,0 0.31888961266023175,0.6379928410033194 l -18.45794074294449 9.028703756580082" fill="#ff0100" stroke="none" /><path d="M 119.31412917781788 91.75594674310238 l 18.870034870696966 -8.054495804667527 a41.51714206922412,41.51714206922412 0 0,0 0.27415974350992856,0.6578835800736031 l -19.005520458743376 7.729379715152646" fill="#ff0000" stroke="none" /><path d="M 120.43855184770803 95.1765574152323 l 26.717836528415642 -6.3053366718089565 a48.45177697898626,48.45177697898626 0 0,0 0.1840916924358765,0.8111419640692885 l -26.822139082409183 5.845760373800642" fill="#ff8d0d" stroke="none" /><path d="M 120.9064616781168 98.02013634271609 l 20.448384927038187 -1.9364833126961678 a41.539873751916616,41.539873751916616 0 0,0 0.06113557196499755,0.7104880164933638 l -20.478614121700925 1.5851742488271419" fill="#ff0000" stroke="none" /><line stroke="#e1ed5e" stroke-width="0.3" x1="184.99686870605535" x2="189.99668451229388" y1="99.2704041080226" y2="99.22748670261217" /><path d="M 185.99683186730306 99.26182062694052 a86.0,86.0 0 0,1 -10.086455211305974,41.156179273409016" fill="none" id="id52" stroke="none" /><text fill="#e1ed5e" style="font-size:6.75px; font-family:Arial;" text-anchor="middle"><textPath startOffset="21.40746469413373" xlink:href="#id52">April</textPath></text><path d="M 120.65975698304385 103.76489593502545 l 27.377922115240956 4.989169415967049 a48.82880577404321,48.82880577404321 0 0,0 -0.15735363476970549,0.8233407084321516 l -27.28824218818909 -5.458412689432515" fill="#ff950d" stroke="none" /><path d="M 119.94978838288452 106.5578916946017 l 19.699731818237993 6.475693135047897 a41.73677977145451,41.73677977145451 0 0,0 -0.22958126286793393,0.6787162097520212 l -19.585665133797697 -6.812911019274079" fill="#ff0500" stroke="none" /><path d="M 119.83427380445688 106.89939002012753 l 23.77461959148206 8.270046826969844 a46.17193300563063,46.17193300563063 0 0,0 -0.26682942563360845,0.746369392939694 l -23.629149995804507 -8.676951176290459" fill="#ff6008" stroke="none" /><path d="M 119.58574465831526 107.57618678355244 l 24.68908346151002 9.550267864832115 a47.47184274770936,47.47184274770936 0 0,0 -0.3005223655562028,0.7575126769407166 l -24.521502420987694 -9.972681558986395" fill="#ff7a0b" stroke="none" /><path d="M 119.4528033332814 107.91128576633889 l 58.358409999844184 23.733857299016655 a84.0,84.0 0 0,0 -0.5546966218540579,1.3310699622348887 l -57.94238753345364 -24.73215977069282" fill="#4dd2ff" stroke="none" /><path d="M 119.0197475246899 108.90220220490707 l 32.06752469774707 15.009220742789555 a56.406254356347866,56.406254356347866 0 0,0 -0.4179991980303239,0.8734575581914341 l -31.80514624175683 -15.557490803046091" fill="#dfff1b" stroke="none" /><path d="M 118.8641267826498 109.22738970284198 l 24.487703721698836 11.978162984764934 a48.26030120984168,48.26030120984168 0 0,0 -0.37040950178239146,0.7410671310531514 l -24.278474306704712 -12.39676197198183" fill="#ff8a0c" stroke="none" /><line stroke="#e1ed5e" stroke-width="0.3" x1="174.33088141563837" x2="178.70328620479359" y1="141.23008692659167" y2="143.65538615756765" /><path d="M 175.20536237346943 141.71514677278685 a86.0,86.0 0 0,1 -30.301960400862466,31.631185727798858" fill="none" id="id53" stroke="none" /><text fill="#e1ed5e" style="font-size:6.75px; font-family:Arial;" text-anchor="middle"><textPath startOffset="22.145653131862474" xlink:href="#id53">May</textPath></text><path d="M 118.36410011445183 110.18625677009912 l 36.66673521317826 20.33841993209029 a62.92971257387026,62.92971257387026 0 0,0 -0.5321055858054285,0.9401795847457097 l -36.31219626235145 -20.96485628693512" fill="#75ff27" stroke="none" /><path d="M 117.62189284568427 111.42229804090321 l 30.40232623953144 19.706420557979275 a57.23043543738952,57.23043543738952 0 0,0 -0.5414423272064042,0.8198126929040013 l -30.05955947340431 -20.225413129222336" fill="#d1ff1c" stroke="none" /><path d="M 117.21940702142032 112.02048342749411 l 30.88940849548388 21.563206122206708 a58.671307589060994,58.671307589060994 0 0,0 -0.5835976335647323,0.8209031575427441 l -30.514695763389188 -22.090286506458956" fill="#b9ff1f" stroke="none" /><path d="M 116.79662413953412 112.60449989151573 l 34.31538727257257 25.750906346497455 a63.902855165276804,63.902855165276804 0 0,0 -0.6659530235397668,0.8717538851928088 l -33.8682822716785 -26.336181144931142" fill="#66ff29" stroke="none" /><path d="M 116.1254893667686 113.45245675266167 l 28.801648973119164 24.027359939518544 a58.5079859394497,58.5079859394497 0 0,0 -0.650011009424901,0.765711334673098 l -28.384943400187147 -24.5182380566412" fill="#bcff1f" stroke="none" /><path d="M 115.6541949942343 113.99807769240083 l 45.946025041278396 41.085218909161014 a82.6362915002798,82.6362915002798 0 0,0 -0.9546549672318334,1.0493330399232177 l -45.23397237320468 -41.8678895246419" fill="#4be4ff" stroke="none" /><path d="M 114.91283532996324 114.78537596483092 l 19.373380727636988 19.207797271950998 a48.281263842761106,48.281263842761106 0 0,0 -0.5885901738135155,0.5835595187960432 l -19.04079863369351 -19.5375368009757" fill="#ff8a0c" stroke="none" /><path d="M 114.65682725009322 115.03919595460226 l 40.03091411424062 41.07524441226455 a78.35546868737958,78.35546868737958 0 0,0 -0.971337351535424,0.930519210231115 l -39.31990427683989 -41.75637575280125" fill="#43ffdd" stroke="none" /><path d="M 114.13192950727249 115.5334660781643 l 38.2022850542331 41.991003329935495 a77.76846786746614,77.76846786746614 0 0,0 -0.9951955774452624,0.8899100220320143 l -37.47582444996446 -42.640608881850895" fill="#42ffd5" stroke="none" /><path d="M 113.59037401385872 116.0094264158162 l 20.61711760628646 24.28691269920062 a52.85780386106424,52.85780386106424 0 0,0 -0.696780797551384,0.5812793231851853 l -20.197162474573183 -24.637254206297676" fill="#ffe015" stroke="none" /><line stroke="#e1ed5e" stroke-width="0.3" x1="143.1302829299769" x2="145.66735839644613" y1="173.24464959558577" y2="177.55315839532614" /><path d="M 143.63769802327073 174.10635135553383 a86.0,86.0 0 0,1 -40.68552437913181,11.842963189579606" fill="none" id="id54" stroke="none" /><text fill="#e1ed5e" style="font-size:6.75px; font-family:Arial;" text-anchor="middle"><textPath startOffset="21.407464694133747" xlink:href="#id54">June</textPath></text><path d="M 108.4095320186766 119.2426549942271 l 17.64982742238946 40.38625919283157 a65.07455433275194,65.07455433275194 0 0,0 -1.0274495102693615,0.4385571000095655 l -16.95394283694967 -40.683290942500534" fill="#54ff2b" stroke="none" /><path d="M 100.72087961077811 120.9876233191556 l 1.2370676310855977 36.01587431987476 a57.03711336038022,57.03711336038022 0 0,0 -0.9788293456627964,0.02521117179755086 l -0.6186249713520574 -36.031803209022364" fill="#d4ff1c" stroke="none" /><line stroke="#e1ed5e" stroke-width="0.3" x1="101.45913802915013" x2="101.54496967792366" y1="184.9874750549273" y2="189.98673829345242" /><path d="M 101.47630435890484 185.9873277026323 a86.0,86.0 0 0,1 -42.54439059252881,-10.42667462771756" fill="none" id="id55" stroke="none" /><text fill="#e1ed5e" style="font-size:6.75px; font-family:Arial;" text-anchor="middle"><textPath startOffset="22.145653131862474" xlink:href="#id55">July</textPath></text><path d="M 98.55909050195518 120.95050786540614 l -1.4507460143777693 21.09352865406862 a42.143358651790564,42.143358651790564 0 0,0 -0.7213157030362302,-0.05583439733433994 l 1.8126307121892355 -21.065516489739228" fill="#ff0d01" stroke="none" /><path d="M 93.27111125876986 119.89276391827306 l -9.133029085906353 27.00017765956441 a49.50301412012513,49.50301412012513 0 0,0 -0.8026424082988757,-0.2792006945222295 l 9.59517726625025 -26.83941853247359" fill="#ffa20e" stroke="none" /><path d="M 89.97174638481275 118.45085714620012 l -19.033312913461966 35.019151994058866 a60.857345707469726,60.857345707469726 0 0,0 -0.9136015203653853,-0.5067593627782015 l 19.631658621983455 -34.68725971584752" fill="#95ff23" stroke="none" /><line stroke="#e1ed5e" stroke-width="0.3" x1="58.13341422392154" x2="55.67067388415222" y1="173.97424548756322" y2="178.32567169271397" /><path d="M 57.64086615596768 174.84453072859336 a86.0,86.0 0 0,1 -31.369924170532247,-30.572349798747897" fill="none" id="id56" stroke="none" /><text fill="#e1ed5e" style="font-size:6.75px; font-family:Arial;" text-anchor="middle"><textPath startOffset="22.145653131862474" xlink:href="#id56">August</textPath></text><path d="M 89.65649057296885 118.27599006163327 l -17.89412257745958 31.617200012661993 a57.32969803697551,57.32969803697551 0 0,0 -0.8523220734491719,-0.4920883785421431 l 18.43423711876915 -31.30536473684368" fill="#cfff1d" stroke="none" /><path d="M 87.54013794807813 116.9041958592261 l -25.000195452140144 33.91756655738621 a63.13562736948309,63.13562736948309 0 0,0 -0.8669033069159079,-0.6505404030716874 l 25.57875174796682 -33.483407127050505" fill="#72ff27" stroke="none" /><path d="M 87.2517909369889 116.68781488649013 l -23.52766775093111 30.798472334249926 a59.75689677878973,59.75689677878973 0 0,0 -0.8098199315572722,-0.629720876930999 l 24.052897627123606 -30.390050405698137" fill="#a7ff21" stroke="none" /><path d="M 85.86807049272751 115.53346607816431 l -21.45244247460169 23.579992194378775 a52.87825779450719,52.87825779450719 0 0,0 -0.6661910836767505,-0.6166165213958148 l 21.854063329592407 -23.208257926850585" fill="#ffe115" stroke="none" /><path d="M 83.8745106332314 113.45245675266167 l -25.217341589667246 21.037203239933362 a53.84019240211945,53.84019240211945 0 0,0 -0.5859689155385025,-0.7147867997440437 l 25.574757324444377 -20.601214158490823" fill="#fff216" stroke="none" /><path d="M 83.4222238831116 112.89097897827486 l -48.86879795326521 38.00067286874095 a82.90485079437735,82.90485079437735 0 0,0 -0.8639791744803181,-1.130976473498816 l 49.51392910509982 -37.15617548200127" fill="#4be1ff" stroke="none" /><line stroke="#e1ed5e" stroke-width="0.3" x1="26.387840678322732" x2="22.057713659400548" y1="142.50000000000003" y2="145.00000000000006" /><path d="M 25.521815274538298 143.00000000000003 a86.0,86.0 0 0,1 -11.493303480769221,-40.785679425670985" fill="none" id="id57" stroke="none" /><text fill="#e1ed5e" style="font-size:6.75px; font-family:Arial;" text-anchor="middle"><textPath startOffset="21.40746469413373" xlink:href="#id57">September</textPath></text><line stroke="#e1ed5e" stroke-width="0.3" x1="15.003131293944662" x2="10.003315487706104" y1="100.72959589197737" y2="100.7725132973878" /><path d="M 14.003168132696942 100.73817937305945 a86.0,86.0 0 0,1 10.791469493833604,-42.45332614584628" fill="none" id="id58" stroke="none" /><text fill="#e1ed5e" style="font-size:6.75px; font-family:Arial;" text-anchor="middle"><textPath startOffset="22.145653131862435" xlink:href="#id58">October</textPath></text><line stroke="#e1ed5e" stroke-width="0.3" x1="26.387840678322718" x2="22.05771365940052" y1="57.49999999999999" y2="54.99999999999999" /><path d="M 25.521815274538284 56.99999999999999 a86.0,86.0 0 0,1 29.574782752854787,-30.34633250058573" fill="none" id="id59" stroke="none" /><text fill="#e1ed5e" style="font-size:6.75px; font-family:Arial;" text-anchor="middle"><textPath startOffset="21.40746469413373" xlink:href="#id59">November</textPath></text><line stroke="#e1ed5e" stroke-width="0.3" x1="56.869717070023135" x2="54.33264160355391" y1="26.7553504044142" y2="22.446841604673864" /><path d="M 56.362301976729285 25.89364864446614 a86.0,86.0 0 0,1 42.16139366436587,-11.88097634709845" fill="none" id="id60" stroke="none" /><text fill="#e1ed5e" style="font-size:6.75px; font-family:Arial;" text-anchor="middle"><textPath startOffset="22.145653131862474" xlink:href="#id60">December</textPath></text></svg>